<svg id="Layer_1" height="512" viewBox="0 0 512 512" width="512" xmlns="http://www.w3.org/2000/svg" data-name="Layer 1"><path d="m473.02 72.06-63.09-53.68a10 10 0 0 0 -6.48-2.38h-347.99a19.994 19.994 0 0 0 -20 20v440a19.994 19.994 0 0 0 20 20h401.08a19.994 19.994 0 0 0 20-20v-396.32a10.021 10.021 0 0 0 -3.52-7.62z" fill="#6d7486"/><path d="m365.93 17.98v134.91h-259.46v-136.89h259.46z" fill="#4a5160"/><path d="m150.93 58.19h36.33v54.49h-36.33z" fill="#6addc7"/><path d="m106.81 287.26h298.38v208.74h-298.38z" fill="#e5cfa3"/><path d="m65.46 476v-440a19.994 19.994 0 0 1 20-20h-30a19.994 19.994 0 0 0 -20 20v440a19.994 19.994 0 0 0 20 20h30a19.994 19.994 0 0 1 -20-20z" fill="#4a5160"/><path d="m106.81 287.26h30v208.74h-30z" fill="#c6af85"/><g fill="#284268"><path d="m133.243 339.738a6 6 0 0 0 6 6h233.514a6 6 0 0 0 0-12h-233.514a6 6 0 0 0 -6 6z"/><path d="m372.757 385.63h-233.514a6 6 0 0 0 0 12h233.514a6 6 0 0 0 0-12z"/><path d="m372.757 437.522h-233.514a6 6 0 0 0 0 12h233.514a6 6 0 0 0 0-12z"/><path d="m187.258 52.192h-36.324a6 6 0 0 0 -6 6v54.487a6 6 0 0 0 6 6h36.324a6 6 0 0 0 6-6v-54.487a6 6 0 0 0 -6-6zm-6 54.487h-24.324v-42.487h24.324z"/><path d="m321.464 52.192h-82.314a6 6 0 0 0 0 12h82.314a6 6 0 1 0 0-12z"/><path d="m55.459 502h401.082a26.03 26.03 0 0 0 26-26v-396.321a15.975 15.975 0 0 0 -5.633-12.187l-63.1-53.679a16.018 16.018 0 0 0 -10.363-3.813h-347.986a26.03 26.03 0 0 0 -26 26v440a26.03 26.03 0 0 0 26 26zm-14-466a14.016 14.016 0 0 1 14-14h45.01v130.9a6 6 0 0 0 6 6h259.46a6 6 0 0 0 6-6v-28.921a6 6 0 1 0 -12 0v22.921h-247.46v-124.9h247.46v61.979a6 6 0 0 0 12 0v-61.979h31.516a4.006 4.006 0 0 1 2.593.953l63.094 53.679a3.994 3.994 0 0 1 1.409 3.047v396.321a14.016 14.016 0 0 1 -14 14h-45.352v-202.74a6 6 0 0 0 -6-6h-220.189a6 6 0 0 0 0 12h214.189v196.74h-286.378v-196.74h32.189a6 6 0 0 0 0-12h-38.189a6 6 0 0 0 -6 6v202.74h-45.352a14.016 14.016 0 0 1 -14-14z"/></g></svg>