<svg fill="none" height="20" viewBox="0 0 20 20" width="20" xmlns="http://www.w3.org/2000/svg"><path d="m15.5787 4.42128c.1998.19975.312.47068.312.75319 0 .2825-.1122.55343-.312.75319-.1997.19976-.4707.31198-.7532.31198s-.5534-.11222-.7532-.31198c-.0475-.05091-.0915-.10493-.1319-.1617-.0393-.0587-.0721-.12148-.0978-.18724-.0263-.06313-.0463-.12869-.0596-.19574-.0063-.06937-.0063-.13915 0-.20851.0018-.28189.1132-.55201.3106-.75319.05-.04854.1041-.09268.1617-.13192.1158-.07777.246-.13132.383-.15745.1685-.03068.3418-.02041.5055.02994.1637.05036.3128.13934.4349.25943zm-1.4638 5.57872c0 .8138-.2413 1.6094-.6935 2.2861-.4521.6767-1.0948 1.2041-1.8467 1.5156-.7519.3114-1.57926.3929-2.37747.2341s-1.53142-.5507-2.1069-1.1261c-.57547-.5755-.96738-1.3087-1.12615-2.1069-.15878-.7982-.07729-1.62561.23416-2.3775.31144-.7519.83886-1.39456 1.51555-1.84671s1.47226-.69349 2.28611-.69349c1.091.00113 2.137.43503 2.9084 1.20647.7715.77145 1.2054 1.81744 1.2065 2.90843zm-1.2766 0c0-.56137-.1665-1.11012-.4783-1.57688-.3119-.46675-.7552-.83054-1.2738-1.04537-.5187-.21482-1.08935-.27103-1.63992-.16151-.55058.10951-1.05631.37984-1.45326.77678-.39694.39694-.66726.90268-.77678 1.45325-.10951.55058-.05331 1.12123.16152 1.63993.21482.5186.57861.9619 1.04537 1.2738.46675.3118 1.01551.4783 1.57687.4783.7528 0 1.4747-.299 2.007-.8313s.8313-1.2542.8313-2.007zm7.1617 0c0 1.9778-.5865 3.9112-1.6853 5.5557s-2.6606 2.9262-4.4879 3.6831c-1.8272.7569-3.83789.9549-5.7777.569-1.93981-.3858-3.72164-1.3382-5.12016-2.7367-1.39853-1.3986-2.350936-3.1804-2.736788-5.1202s-.18781916-3.95048.569057-5.77774c.756881-1.82726 2.038601-3.38904 3.683091-4.48786 1.64449-1.09881 3.57789-1.6853 5.5557-1.6853 2.6515.0022537 5.1937 1.05655 7.0686 2.93142 1.8749 1.87488 2.9291 4.4171 2.9314 7.06858zm-1.2766 0c0-1.72533-.5116-3.41191-1.4702-4.84647-.9585-1.43455-2.3209-2.55265-3.9149-3.21291-1.594-.66025-3.34798-.833-5.04015-.49641-1.69217.3366-3.24654 1.16742-4.46653 2.38741-1.21998 1.21999-2.05081 2.77435-2.3874 4.46653-.3366 1.69217-.16384 3.44615.49641 5.04015s1.77835 2.9564 3.21291 3.9149c1.43456.9586 3.12114 1.4702 4.84646 1.4702 2.3126-.0034 4.5294-.9235 6.1646-2.5588 1.6353-1.6352 2.5554-3.852 2.5588-6.1646z" fill="#fff"/></svg>