<svg fill="none" height="20" viewBox="0 0 17 20" width="17" xmlns="http://www.w3.org/2000/svg"><path clip-rule="evenodd" d="m16.4817 14.0825c-.6763-.1973-1.2839-.6581-1.8113-1.3823-.5273-.724-.791-1.5467-.791-2.4463 0-.83364.2522-1.59073.7452-2.27088.2751-.38384.7108-.81167 1.3069-1.29446-.3898-.46076-.7911-.83367-1.1923-1.09692-.7108-.47184-1.5247-.71307-2.4419-.71307-.5617 0-1.2266.13154-1.9832.37293-.75665.2523-1.30697.37292-1.63944.37292-.26364 0-.79098-.10969-1.58201-.32909-.80254-.21938-1.4674-.32907-2.02915-.32907-1.31838 0-2.39603.52662-3.25584 1.57969-.859808 1.06416-1.295453 2.42446-1.295453 4.10295 0 1.799.573233 3.6312 1.685263 5.5179 1.13493 1.887 2.26986 2.8414 3.45069 2.8414.37833 0 .88274-.1206 1.51326-.3729.61907-.2414 1.16935-.3622 1.62792-.3622.47 0 1.05466.1097 1.73106.3511.6878.2305 1.2152.3511 1.605.3511.9744 0 1.9604-.7131 2.9463-2.1501.6649-.9545 1.1235-1.876 1.41-2.7427zm-4.3105-12.86806c0-.07677-.0114-.14264-.0114-.219404-.0115-.065842-.0344-.14261-.0574-.241374-1.3298.296148-2.29275.833858-2.86599 1.623698-.57318.78984-.87123 1.73322-.89416 2.81921.53877-.04385.92857-.10969 1.19222-.18646.41271-.13154.82543-.39493 1.23813-.78984.4815-.46078.8369-.96538 1.0662-1.51384.2178-.53755.3324-1.04215.3324-1.49199z" fill="#fff" fill-rule="evenodd"/></svg>