<svg fill="none" height="23" viewBox="0 0 20 23" width="20" xmlns="http://www.w3.org/2000/svg"><path clip-rule="evenodd" d="m7.6466 5.17217c-.28354 0-.51306-.23878-.51306-.51733s.22952-.51731.51306-.51731c.29701 0 .52653.23876.52653.51731s-.22952.51733-.52653.51733zm5.6973 0c-.297 0-.5265-.23878-.5265-.51733s.2295-.51731.5265-.51731c.2835 0 .513.23876.513.51731s-.2295.51733-.513.51733zm-10.9626 2.44076c-.76957 0-1.390577.61023-1.390577 1.35297v5.7039c0 .7562.621007 1.3664 1.390577 1.3664.76949 0 1.37704-.6102 1.37704-1.3664v-5.7039c0-.74274-.621-1.35297-1.37704-1.35297zm14.3108.25199h-12.39371v8.83458c0 .8091.66157 1.4591 1.48509 1.4591h.99903l.01352 3.0112c0 .7561.62106 1.3664 1.3771 1.3664.76951 0 1.39056-.6103 1.39056-1.3664v-3.0112h1.86311v3.0112c0 .7561.621 1.3664 1.3906 1.3664.7695 0 1.3906-.6103 1.3906-1.3664v-3.0112h1.0125c.8101 0 1.4716-.65 1.4716-1.4591zm-3.1322-5.37229.9586-1.737769c.054-.092749.027-.212205-.0675-.265193-.0946-.039936-.2161-.013354-.27.079545l-.9721 1.750977c-.8236-.35824-1.7416-.55709-2.7137-.55709-.97201 0-1.89009.19885-2.71361.55709l-.97205-1.750977c-.05401-.092899-.17553-.119481-.27002-.079545-.09454.052988-.12152.172444-.06749.265193l.95852 1.737769c-1.90356.95512-3.18613 2.78565-3.18613 4.89471h12.48818c0-2.10906-1.2826-3.93959-3.1727-4.89471zm6.4399 6.47327c0-.75609-.6211-1.35297-1.3906-1.35297-.756 0-1.3771.59688-1.3771 1.35297v5.7039c0 .7562.6211 1.3664 1.3771 1.3664.7695 0 1.3906-.6102 1.3906-1.3664z" fill="#fff" fill-rule="evenodd"/></svg>