<svg fill="none" height="20" viewBox="0 0 20 20" width="20" xmlns="http://www.w3.org/2000/svg"><path d="m9.99781 0c-5.47868 0-9.962036 4.45778-9.99758298 9.93778-.01777352 2.67112 1.00864298 5.19112 2.88374298 7.08892 1.87511 1.9022 4.38117 2.9555 7.05163 2.9733h.0667c5.4786 0 9.962-4.4578 9.9975-9.9378.0311-5.51109-4.4256-10.0266444-10.00199-10.0622zm7.85589 13.6089-3.9679-3.6089 3.9723-3.60889c.5155 1.11556.7998 2.35556.791 3.66219-.0089 1.2667-.2933 2.4711-.7954 3.5556zm-7.8026-12.26223c2.9904.01777 5.6209 1.56 7.1627 3.88444l-7.21599 6.55999-2.49717-2.2711-4.70998-4.28c1.55074-2.34222 4.22121-3.89333 7.26044-3.89333zm-7.90917 5.04444 3.96793 3.60889-3.97682 3.6133c-.52431-1.1333-.79536-2.3822-.78647-3.66663.00889-1.26667.29326-2.47111.79536-3.55556zm7.85588 12.26219h-.05776c-2.31056-.0133-4.47448-.9289-6.10075-2.5733-.3999-.4044-.75537-.8444-1.06641-1.3111l4.2923-3.8978 2.49717 2.2667c.12442.1111.27993.1689.43545.1689.15549 0 .31099-.0578.43549-.1689l2.4971-2.2667 4.2834 3.8933c-1.5551 2.3378-4.2123 3.8889-7.21599 3.8889z" fill="#fff"/></svg>