<svg fill="none" height="14" viewBox="0 0 18 14" width="18" xmlns="http://www.w3.org/2000/svg"><path clip-rule="evenodd" d="m17.1731 2.97198c0-.27809-.1066-.55635-.2985-.75656l-1.4499-1.513095c-.1919-.200376-.4584-.31155-.725-.31155-.2665 0-.533.111174-.725.31155l-6.99364 7.309915-3.13439-3.28234c-.1919-.20021-.45843-.31155-.72496-.31155-.26655 0-.53309.11134-.72499.31155l-1.449904 1.51327c-.191919.20021-.29849.47829-.29849.75656 0 .27808.106571.55618.29849.75655l3.859354 4.02762 1.44991 1.5132c.19192.2002.45845.3116.72498.3116.26654 0 .53301-.1114.72491-.3116l1.44997-1.5132 7.71866-8.05537c.1919-.20019.2985-.47829.2985-.75655z" fill="#fff" fill-rule="evenodd"/></svg>