<svg fill="none" height="45" viewBox="0 0 44 45" width="44" xmlns="http://www.w3.org/2000/svg"><path d="m22.1556.00077147-.1582-.00077147c-.7557 0-1.5044.0393656-2.2408.114239-.3419.034735-.6808.079506-1.0166.129679-.0216.002316-.0447.004631-.0664.008491-9.04346 1.377061-16.29077 8.282411-18.185764 17.148391-.003859.0185-.009261.0363-.012349.054-.06098.2895-.113468.582-.163641.8753-.012351.0741-.027789.1475-.039367.2231-.039367.2463-.070242.4956-.100346.7449-.015438.1227-.033964.2439-.047086.3674-.023157.2146-.0378223.4323-.0540321.6484-.0123503.1583-.0270169.3157-.0362796.474-.0115784.1976-.0138938.3967-.0192971.5943-.0038594.1544-.01389441.308-.0154382.4631 0 .0247.00154441.0494.00154441.0757 0 .0262-.00154441.0533-.00154441.0803 0 .0694.00694721.1366.00771911.2061.00308759.3898.01621079.7773.04091139 1.1624.0084909.1313.0162097.2625.0270162.3929.0339633.4261.0779613.8507.1366253 1.2698.004631.037.007719.0749.013122.1127.066383.4631.15129.9201.245461 1.374.021613.1011.045541.2007.067926.301.084909.3813.180624.7588.286373 1.1331.021613.0788.041682.1567.064067.2339.134309.4547.279429.9024.440749 1.3431.00772.0209.01621.0409.02316.0618.15438.4183.32342.829.50173 1.235.02933.0672.05866.1351.08954.2015.38826.8591.82901 1.6896 1.32071 2.487.01003.0162.01775.0324.02702.0486-.00078.024.00617.0487.00463.0741.02701.0409.0548.0803.07873.1235.02316.0147.04786.027.07101.0409.73099 1.1448 1.56463 2.2185 2.48859 3.2065.00617.0069.01235.0131.01852.0193.91856.9811 1.92665 1.8803 3.01116 2.6808.01621.0123.03165.0224.04785.0347.33346.2439.67464.4794 1.02198.7063.0402.0255.0787.0509.1181.0764.7441.477 1.5168.9139 2.318 1.3006.0154.0078.0301.0139.0455.0209.3644.1752.7341.3381 1.1093.4932.0841.0348.169.068.2524.1019.3273.1305.6592.2524.9934.3682.0803.0286.1605.0579.2424.0841.8159.2702 1.6526.4925 2.5063.6654.1104.0224.2208.0417.3319.0618.3173.0586.6361.1119.9587.1574.1297.0178.2594.0371.3898.0525.3443.0425.6909.0757 1.039.1019.0911.007.1814.017.2725.0224.4083.0255.8197.0425 1.2334.0455l.1583.0008c12.0431 0 21.9102-9.7992 21.9959-21.8446.0849-12.1334-9.7136-22.0714765-21.8439-22.15792853zm-2.0902 42.49892853c-.3042-.0286-.606-.0649-.9062-.1066-.0402-.0054-.0795-.0108-.1189-.0162-.301-.0432-.599-.0941-.8954-.1497-.0371-.0077-.0749-.0139-.1127-.0209-.2972-.0586-.592-.1235-.8846-.1952-.0347-.0085-.0702-.0163-.1065-.0247-.2941-.0734-.5843-.1521-.8738-.2386-.0316-.01-.0648-.0185-.0965-.0277-.2902-.088-.5774-.1814-.863-.2818-.0293-.0108-.0594-.0201-.0887-.0309-.2864-.1026-.5697-.2099-.8507-.3242-.0262-.0115-.0524-.0216-.0795-.0324-.2825-.1158-.5619-.2393-.8375-.3674-.0231-.0108-.0478-.0208-.071-.0324-.2779-.1305-.5527-.2671-.8228-.4091-.0201-.0108-.0409-.0209-.0602-.0309-.2733-.1451-.5419-.2956-.8074-.4516-.017-.0108-.0355-.02-.0533-.0316-.2663-.1575-.5287-.3211-.7873-.4909-.0162-.0108-.0317-.0193-.0479-.0301-.2586-.1714-.5148-.3482-.76646-.5311-.01312-.01-.02625-.0185-.03937-.0286-.25241-.1837-.49941-.3735-.74333-.5681-.01312-.01-.02393-.0193-.03628-.0285-.24315-.1961-.48243-.3976-.71632-.6036-.01235-.0109-.02316-.0193-.03473-.0302-.23312-.2068-.46237-.4183-.68544-.6352-.01235-.0116-.02316-.0216-.03551-.0332-.22154-.2161-.43921-.4384-.65225-.6646-.01235-.0124-.02316-.0255-.03628-.0378-.20918-.2254-.41528-.4554-.61597-.6901-.00695-.0085-.0139-.0162-.02007-.0239 2.86527 1.3654 5.95441 2.3689 9.20171 2.947 1.3346 1.5299 2.8622 2.9479 4.582 4.2239-.0124-.0008-.0247-.0016-.0378-.0031zm-15.65557-9.8046c-.40293-.66-.77035-1.3447-1.09764-2.0509-.01929-.041-.03705-.0826-.05557-.1243-.1428-.3111-.27634-.6276-.4037-.9487-.0247-.0625-.04863-.1266-.0741-.1899-.12196-.318-.23775-.6391-.3435-.9648-.01466-.0456-.0301-.0903-.04554-.1366-.49324-1.5407-.81203-3.1602-.92781-4.8344-.00078-.007-.00078-.0139-.00155-.0201 2.58739 1.8834 5.46964 3.4234 8.57108 4.5411.7866 3.0744 2.1768 5.9783 4.1134 8.6027-3.4735-.7896-6.73627-2.0926-9.69725-3.8131-.01235-.0217-.0247-.041-.03782-.061zm-2.59897-14.7409c.04786-.2362.10112-.4701.15592-.7032.02007-.0826.0386-.1667.05867-.2485.05094-.2015.10652-.4014.1621-.5998.03319-.115.06561-.23.10111-.3442.05172-.1745.1073-.3466.16364-.5187.04786-.1428.09726-.2849.14744-.4269.05171-.1459.10497-.291.15978-.4354.01775-.0486.03936-.0957.05712-.1435 2.06636 1.4982 4.33341 2.7603 6.75715 3.7452-.19066 1.2219-.29949 2.4631-.29949 3.7221 0 1.4666.14203 2.9116.40061 4.328-3.00884-1.1772-5.7892-2.7696-8.2608-4.7016.02161-1.2304.15361-2.433.38286-3.6017.00463-.0239.00849-.0478.01389-.0718zm1.64182-4.883c.19838-.4098.41451-.8112.63835-1.2057.08954-.1582.17986-.3157.27403-.4708.21999-.3643.45078-.721.69161-1.0699.11733-.1705.24006-.33805.36279-.504.24238-.3296.4917-.6538.75337-.96718.1374-.16519.27943-.32343.42145-.48321.20919-.2362.423-.46622.64222-.69162.10112-.1042.19992-.20918.30258-.3103 1.55459.9996 3.23112 1.84251 5.00182 2.50634-1.2643 2.19527-2.1713 4.54647-2.70544 6.99487-2.31722-.9664-4.48084-2.1983-6.44839-3.6557.02315-.0478.04245-.0964.06561-.1428zm5.38164-6.87907c.26553-.22077.53492-.4369.8128-.64531.15901-.12041.32265-.23542.48548-.35121.2378-.16827.4771-.33191.7225-.49092.1428-.09186.2856-.18526.4307-.27402.3474-.21227.6994-.41528 1.0599-.60748.1242-.06639.2516-.12891.3766-.19298.3258-.16518.6554-.32265.9904-.47085.0864-.0386.1721-.08028.2593-.11656.4192-.1783.846-.3404 1.2783-.49169.0918-.03242.1845-.0633.2779-.09418.9324-.30952 1.8934-.5573 2.8799-.73098.0456-.00772.0903-.01621.1366-.02393.5141-.08722 1.0344-.15823 1.56-.20609-2.7695 2.05632-5.0597 4.47466-6.8088 7.15082-1.6534-.59822-3.2173-1.3624-4.6754-2.26937.07179-.06175.14203-.12427.21382-.18525zm13.89488 10.17667c2.7896.3604 4.9532 2.7456 4.9532 5.6309 0 2.8854-2.1636 5.2705-4.9532 5.631zm-6.477 20.6072c-2.1366-2.548-3.6904-5.4141-4.6082-8.4708 3.0513.934 6.2925 1.4605 9.6541 1.5261v7.4032c-1.7167-.034-3.4018-.1883-5.0459-.4585zm5.0459 1.8633v2.785c-1.2914-.9301-2.477-1.9405-3.5507-3.0212 1.1671.1351 2.3512.2139 3.5507.2362zm-10.0755-11.9496c-.3528-1.5924-.5435-3.2258-.5435-4.8892 0-1.0845.0826-2.1559.2347-3.2118 3.2427 1.1532 6.7379 1.8131 10.3843 1.8888v7.9497c-3.5268-.0718-6.9131-.6785-10.0755-1.7375zm-.0641-9.5051c.5148-2.4716 1.4442-4.8367 2.7456-7.0381 2.335.7325 4.8182 1.1547 7.394 1.2211v7.705c-3.5662-.0764-6.9795-.7379-10.1396-1.888zm3.526-8.27317c1.7067-2.52718 3.9312-4.80658 6.6128-6.73786v7.77683c-2.2964-.0625-4.5163-.41528-6.6128-1.03897zm8.0447 19.93727c3.5661-.3659 6.3573-3.3879 6.3573-7.049s-2.7912-6.683-6.3573-7.0489v-6.06245c6.9123.38209 12.4236 6.10565 12.4236 13.11215 0 7.0057-5.5113 12.7293-12.4236 13.1114zm0 13.5282v-6.064c7.6865-.3837 13.8277-6.7333 13.8277-14.5124 0-7.7807-6.1412-14.13105-13.8277-14.51468v-6.06245c11.0844.38981 19.9441 9.56143 19.8654 20.72223-.078 11.0319-8.9231 20.0461-19.8654 20.4313z" fill="#fff"/></svg>