<svg width="0" height="0" class="hidden">
  <symbol viewBox="0 0 20 23" fill="none" xmlns="http://www.w3.org/2000/svg" id="icon-android">
    <path fill-rule="evenodd" clip-rule="evenodd" d="M7.647 5.172a.52.52 0 0 1-.513-.517.52.52 0 0 1 1.04 0c0 .278-.23.517-.527.517zm5.697 0a.523.523 0 0 1-.527-.517.52.52 0 1 1 1.04 0 .52.52 0 0 1-.513.517zM2.38 7.612c-.77 0-1.39.611-1.39 1.354v5.704c0 .756.62 1.366 1.39 1.366.77 0 1.377-.61 1.377-1.366V8.966c0-.743-.62-1.353-1.377-1.353zm14.311.253H4.298V16.7c0 .809.662 1.459 1.485 1.459h1l.013 3.01c0 .757.621 1.367 1.377 1.367.77 0 1.39-.61 1.39-1.366v-3.011h1.864v3.01c0 .757.62 1.367 1.39 1.367.77 0 1.391-.61 1.391-1.366v-3.011h1.012c.81 0 1.472-.65 1.472-1.46V7.866zM13.56 2.493l.958-1.738a.191.191 0 0 0-.067-.265c-.095-.04-.216-.014-.27.08l-.972 1.75a6.787 6.787 0 0 0-2.714-.557c-.972 0-1.89.199-2.713.557L6.81.57C6.756.475 6.634.45 6.54.49a.191.191 0 0 0-.068.265l.959 1.738c-1.904.955-3.187 2.785-3.187 4.894h12.489c0-2.109-1.283-3.94-3.173-4.894zM20 8.966c0-.756-.621-1.353-1.39-1.353-.757 0-1.378.597-1.378 1.353v5.704c0 .756.621 1.366 1.377 1.366.77 0 1.39-.61 1.39-1.366V8.966z" fill="#fff"></path>
  </symbol>
  <symbol viewBox="0 0 17 20" fill="none" xmlns="http://www.w3.org/2000/svg" id="icon-apple">
    <path fill-rule="evenodd" clip-rule="evenodd" d="M16.482 14.082c-.677-.197-1.284-.658-1.812-1.382a4.069 4.069 0 0 1-.79-2.446c0-.834.252-1.59.745-2.271.275-.384.71-.812 1.306-1.294-.39-.461-.79-.834-1.192-1.097-.71-.472-1.525-.713-2.442-.713-.561 0-1.226.131-1.983.373-.757.252-1.307.372-1.64.372-.263 0-.79-.11-1.581-.329-.803-.22-1.468-.329-2.03-.329-1.318 0-2.396.527-3.255 1.58C.948 7.61.512 8.97.512 10.649c0 1.799.573 3.631 1.685 5.518 1.135 1.887 2.27 2.841 3.451 2.841.378 0 .883-.12 1.513-.373.62-.241 1.17-.362 1.628-.362.47 0 1.055.11 1.731.351.688.23 1.216.351 1.605.351.975 0 1.96-.713 2.947-2.15.665-.954 1.123-1.876 1.41-2.742zm-4.31-12.868c0-.076-.012-.142-.012-.219-.012-.066-.035-.143-.058-.241-1.33.296-2.292.834-2.866 1.623-.573.79-.87 1.734-.894 2.82.539-.044.929-.11 1.192-.187.413-.131.826-.395 1.239-.79.481-.46.837-.965 1.066-1.514.218-.537.332-1.042.332-1.492z" fill="#fff"></path>
  </symbol>
  <symbol viewBox="0 0 14 14" fill="none" xmlns="http://www.w3.org/2000/svg" id="icon-arrow-left">
    <path d="M7.657 1.343L2 7l5.657 5.657" stroke="#373737" stroke-width="2"></path>
  </symbol>
  <symbol viewBox="0 0 14 14" fill="none" xmlns="http://www.w3.org/2000/svg" id="icon-arrow-right">
    <path d="M6.343 1.343L12 7l-5.657 5.657" stroke="#373737" stroke-width="2"></path>
  </symbol>
  <symbol viewBox="0 0 18 14" fill="none" xmlns="http://www.w3.org/2000/svg" id="icon-check">
    <path fill-rule="evenodd" clip-rule="evenodd" d="M17.173 2.972c0-.278-.106-.556-.298-.757L15.425.702A1.012 1.012 0 0 0 14.7.391c-.267 0-.533.11-.725.311L6.98 8.012 3.847 4.73a1.012 1.012 0 0 0-.725-.312c-.267 0-.533.112-.725.312L.947 6.243a1.103 1.103 0 0 0 0 1.513l3.86 4.028 1.45 1.513c.191.2.458.312.724.312.267 0 .533-.112.725-.312l1.45-1.513 7.719-8.055c.192-.2.298-.479.298-.757z" fill="#fff"></path>
  </symbol>
  <symbol viewBox="0 0 20 20" fill="none" xmlns="http://www.w3.org/2000/svg" id="icon-insta">
    <path d="M15.579 4.421a1.065 1.065 0 1 1-1.796.962 1.153 1.153 0 0 1 0-.209c.002-.281.113-.552.31-.753a1.034 1.034 0 0 1 1.05-.26c.164.051.314.14.436.26zM14.115 10a4.115 4.115 0 1 1-8.23 0 4.115 4.115 0 0 1 8.23 0zm-1.277 0a2.839 2.839 0 1 0-5.677 0 2.839 2.839 0 0 0 5.677 0zM20 10A10 10 0 1 1 10 0a10.009 10.009 0 0 1 10 10zm-1.277 0A8.723 8.723 0 1 0 10 18.723 8.736 8.736 0 0 0 18.723 10z" fill="#fff"></path>
  </symbol>
  <symbol viewBox="0 0 20 20" fill="none" xmlns="http://www.w3.org/2000/svg" id="icon-mail">
    <path d="M9.998 0C4.519 0 .036 4.458 0 9.938a9.931 9.931 0 0 0 2.884 7.089A9.928 9.928 0 0 0 9.936 20h.066c5.479 0 9.962-4.458 9.998-9.938C20.03 4.552 15.574.036 9.998 0zm7.856 13.609L13.886 10l3.972-3.609c.516 1.116.8 2.356.791 3.662a8.588 8.588 0 0 1-.795 3.556zM10.05 1.347a8.65 8.65 0 0 1 7.163 3.884l-7.216 6.56L7.5 9.52 2.79 5.24a8.691 8.691 0 0 1 7.26-3.893zM2.141 6.39L6.11 10l-3.977 3.613a8.58 8.58 0 0 1-.786-3.666 8.587 8.587 0 0 1 .795-3.556zm7.857 12.262H9.94a8.593 8.593 0 0 1-6.1-2.573 8.816 8.816 0 0 1-1.067-1.311l4.292-3.898 2.497 2.267c.125.11.28.169.436.169a.655.655 0 0 0 .435-.17l2.497-2.266 4.284 3.893c-1.555 2.338-4.212 3.89-7.216 3.89z" fill="#fff"></path>
  </symbol>
  <symbol viewBox="0 0 20 20" fill="none" xmlns="http://www.w3.org/2000/svg" id="icon-facebook">
    <path d="M8.695 6.937v1.377H7.687v1.683h1.008V15h2.072V9.997h1.39s.132-.807.194-1.69h-1.576v-1.15c0-.173.226-.404.45-.404h1.129V5h-1.535C8.643 5 8.694 6.685 8.694 6.937z" fill="#fff"></path>
    <circle cx="10" cy="10" r="9.35" stroke="#fff" stroke-width="1.3"></circle>
  </symbol>
  <symbol viewBox="0 0 20 20" fill="none" xmlns="http://www.w3.org/2000/svg" id="icon-telegram">
    <circle cx="10" cy="10" r="9.35" stroke="#fff" stroke-width="1.3"></circle>
    <path d="M11.603 9.733L9.357 8.685C9.161 8.594 9 8.696 9 8.913v1.974c0 .217.161.319.357.228l2.245-1.048c.197-.092.197-.242.001-.334zM10 13.8c-4.914 0-5-.443-5-3.9S5.086 6 10 6s5 .443 5 3.9-.086 3.9-5 3.9z" fill="#fff"></path>
  </symbol>
  <symbol viewBox="0 0 44 45" xmlns="http://www.w3.org/2000/svg" id="logo">
    <path d="M22.156 0h-.159a22.164 22.164 0 0 0-3.257.244l-.066.008C9.63 1.63 2.383 8.535.488 17.401c-.004.018-.01.036-.013.054-.06.29-.113.582-.163.875-.013.074-.028.148-.04.223-.039.246-.07.496-.1.745-.015.123-.034.244-.047.368-.023.214-.038.432-.054.648-.012.158-.027.316-.036.474-.012.197-.014.397-.02.594-.003.155-.013.308-.015.463l.002.076-.002.08c0 .07.007.137.008.206.003.39.016.778.04 1.163.01.131.017.262.028.393.034.426.078.85.136 1.27l.013.112c.067.463.152.92.246 1.374.021.101.045.2.068.301.085.381.18.759.286 1.133l.064.234c.135.455.28.903.441 1.343l.023.062c.155.418.324.83.502 1.235.03.067.059.135.09.202.388.859.828 1.69 1.32 2.487l.027.048c0 .024.006.049.005.074.027.041.055.08.078.124l.071.04a22.138 22.138 0 0 0 2.49 3.207l.018.02a22.16 22.16 0 0 0 3.01 2.68l.049.035c.333.244.674.48 1.022.706l.118.077c.744.477 1.516.914 2.318 1.3l.045.021c.365.175.734.338 1.11.493l.252.102c.327.13.66.253.993.369.08.028.16.057.243.084.816.27 1.652.492 2.506.665a22.825 22.825 0 0 0 1.29.22c.13.017.26.036.39.052.345.042.691.075 1.04.102.09.007.18.017.272.022.408.026.82.042 1.233.045l.159.001c12.043 0 21.91-9.799 21.995-21.844C44.084 10.025 34.286.087 22.156 0zm-2.09 42.5a20.594 20.594 0 0 1-.907-.107l-.119-.016a21.153 21.153 0 0 1-.895-.15 19.848 19.848 0 0 1-.997-.216l-.107-.025a19.75 19.75 0 0 1-.874-.238l-.096-.028a20.79 20.79 0 0 1-.863-.282l-.089-.03c-.286-.103-.57-.21-.85-.325l-.08-.032c-.283-.116-.562-.24-.838-.368-.023-.01-.047-.02-.07-.032a18.01 18.01 0 0 1-.823-.41l-.06-.03a21.419 21.419 0 0 1-.808-.452l-.053-.031a19.776 19.776 0 0 1-.788-.491l-.048-.03a21.624 21.624 0 0 1-.766-.531l-.04-.029a21.12 21.12 0 0 1-.743-.568l-.036-.029a21.608 21.608 0 0 1-.716-.603l-.035-.03a20.446 20.446 0 0 1-.685-.636l-.036-.033a21.5 21.5 0 0 1-.652-.664c-.013-.013-.023-.026-.036-.038a21.2 21.2 0 0 1-.616-.69l-.02-.024a36.08 36.08 0 0 0 9.201 2.947 28.99 28.99 0 0 0 4.582 4.224.749.749 0 0 1-.038-.003zM4.41 32.695a20.4 20.4 0 0 1-1.098-2.05c-.02-.042-.037-.083-.055-.125a19.555 19.555 0 0 1-.404-.949l-.074-.19a19.705 19.705 0 0 1-.344-.965l-.045-.136a20.477 20.477 0 0 1-.928-4.835c0-.006 0-.013-.002-.02a34.36 34.36 0 0 0 8.571 4.541c.787 3.075 2.177 5.979 4.114 8.603a34.536 34.536 0 0 1-9.697-3.813 1.108 1.108 0 0 0-.038-.06zm-2.6-14.74c.049-.237.102-.47.157-.704.02-.083.038-.167.058-.248.051-.202.107-.402.163-.6.033-.115.065-.23.1-.345a19.23 19.23 0 0 1 .472-1.38c.017-.05.039-.096.057-.144a32.091 32.091 0 0 0 6.757 3.745c-.19 1.222-.3 2.463-.3 3.722 0 1.467.142 2.912.4 4.328a32.843 32.843 0 0 1-8.26-4.701c.022-1.23.154-2.433.383-3.602.005-.024.008-.048.014-.072zm1.643-4.884c.198-.41.414-.811.638-1.205a20.924 20.924 0 0 1 .966-1.54c.117-.172.24-.34.362-.505.243-.33.492-.654.754-.967.137-.166.28-.324.421-.484.21-.236.423-.466.643-.691.1-.104.2-.21.302-.31 1.555 1 3.231 1.842 5.002 2.506a24.421 24.421 0 0 0-2.706 6.995 30.658 30.658 0 0 1-6.448-3.656c.023-.048.043-.096.066-.143zm5.381-6.879c.266-.22.535-.437.813-.645.16-.12.323-.236.486-.351.237-.169.477-.332.722-.491.143-.092.286-.186.43-.274.348-.213.7-.416 1.06-.608.125-.066.252-.129.377-.193.326-.165.656-.322.99-.47.087-.04.173-.08.26-.117a20.909 20.909 0 0 1 4.436-1.317l.137-.024a20.373 20.373 0 0 1 1.56-.206c-2.77 2.056-5.06 4.475-6.81 7.15A24.867 24.867 0 0 1 8.62 6.378l.214-.185zM22.73 16.37c2.79.36 4.953 2.745 4.953 5.63 0 2.886-2.163 5.271-4.953 5.632V16.369zm-6.477 20.607c-2.136-2.548-3.69-5.414-4.608-8.47a35.304 35.304 0 0 0 9.654 1.525v7.404a35.432 35.432 0 0 1-5.046-.459zm5.046 1.863v2.785a28.37 28.37 0 0 1-3.55-3.02 37.03 37.03 0 0 0 3.55.235zM11.223 26.89a22.569 22.569 0 0 1-.544-4.89c0-1.084.083-2.155.235-3.211a32.999 32.999 0 0 0 10.384 1.888v7.95a33.862 33.862 0 0 1-10.075-1.737zm-.065-9.504a23.049 23.049 0 0 1 2.746-7.039 27.007 27.007 0 0 0 7.394 1.222v7.705a31.587 31.587 0 0 1-10.14-1.888zm3.527-8.274c1.706-2.527 3.93-4.806 6.612-6.737v7.776a25.62 25.62 0 0 1-6.613-1.039zm8.044 19.938c3.566-.366 6.358-3.388 6.358-7.05 0-3.66-2.792-6.682-6.358-7.048V8.888C29.642 9.27 35.153 14.994 35.153 22s-5.511 12.73-12.424 13.112v-6.063zm0 13.528v-6.064C30.416 36.129 36.557 29.78 36.557 22c0-7.781-6.141-14.132-13.828-14.515V1.423c11.085.39 19.944 9.562 19.866 20.723-.078 11.032-8.923 20.046-19.866 20.43z"></path>
  </symbol>
</svg>