<svg width="183" height="54" viewBox="0 0 183 54" fill="none" xmlns="http://www.w3.org/2000/svg">
<path d="M3.58398 48.0103L4.74561 47.9087C4.80062 48.3742 4.92757 48.7572 5.12646 49.0576C5.32959 49.3538 5.64274 49.5951 6.06592 49.7812C6.48909 49.9632 6.96517 50.0542 7.49414 50.0542C7.96387 50.0542 8.37858 49.9844 8.73828 49.8447C9.09798 49.7051 9.36458 49.5146 9.53809 49.2734C9.71582 49.028 9.80469 48.7614 9.80469 48.4736C9.80469 48.1816 9.72005 47.9277 9.55078 47.7119C9.38151 47.4919 9.10221 47.3078 8.71289 47.1597C8.46322 47.0623 7.91097 46.9121 7.05615 46.709C6.20133 46.5016 5.60254 46.307 5.25977 46.125C4.81543 45.8923 4.48324 45.6045 4.26318 45.2617C4.04736 44.9147 3.93945 44.5275 3.93945 44.1001C3.93945 43.6304 4.07275 43.1924 4.33936 42.7861C4.60596 42.3757 4.99528 42.0646 5.50732 41.853C6.01937 41.6414 6.58854 41.5356 7.21484 41.5356C7.90462 41.5356 8.51188 41.6478 9.03662 41.8721C9.56559 42.0921 9.97184 42.418 10.2554 42.8496C10.5389 43.2812 10.6912 43.77 10.7124 44.3159L9.53174 44.4048C9.46826 43.8166 9.25244 43.3722 8.88428 43.0718C8.52035 42.7713 7.98079 42.6211 7.26562 42.6211C6.52083 42.6211 5.97705 42.7586 5.63428 43.0337C5.29574 43.3045 5.12646 43.6325 5.12646 44.0176C5.12646 44.3519 5.24707 44.627 5.48828 44.8428C5.72526 45.0586 6.3431 45.2808 7.3418 45.5093C8.34473 45.7336 9.03239 45.9303 9.40479 46.0996C9.94645 46.3493 10.3464 46.6667 10.6045 47.0518C10.8626 47.4326 10.9917 47.8727 10.9917 48.3721C10.9917 48.8672 10.8499 49.3348 10.5664 49.7749C10.2829 50.2108 9.87451 50.5514 9.34131 50.7969C8.81234 51.0381 8.21566 51.1587 7.55127 51.1587C6.70915 51.1587 6.00244 51.036 5.43115 50.7905C4.86409 50.5451 4.41764 50.1769 4.0918 49.686C3.77018 49.1909 3.60091 48.6323 3.58398 48.0103Z" fill="white"/>
<path d="M13.8278 51V41.6943H14.9704V45.0332C15.5036 44.4154 16.1765 44.1064 16.989 44.1064C17.4883 44.1064 17.9221 44.2059 18.2902 44.4048C18.6584 44.5994 18.9208 44.8703 19.0773 45.2173C19.2382 45.5643 19.3186 46.0679 19.3186 46.728V51H18.176V46.728C18.176 46.1567 18.0511 45.742 17.8015 45.4839C17.556 45.2215 17.2069 45.0903 16.7541 45.0903C16.4156 45.0903 16.0961 45.1792 15.7956 45.3569C15.4994 45.5304 15.2878 45.7674 15.1608 46.0679C15.0339 46.3683 14.9704 46.783 14.9704 47.312V51H13.8278Z" fill="white"/>
<path d="M26.9789 48.8291L28.1596 48.9751C27.9734 49.6649 27.6285 50.2002 27.1249 50.5811C26.6213 50.9619 25.9781 51.1523 25.1952 51.1523C24.2092 51.1523 23.4263 50.8498 22.8466 50.2446C22.2711 49.6353 21.9833 48.7826 21.9833 47.6865C21.9833 46.5524 22.2753 45.6722 22.8593 45.0459C23.4433 44.4196 24.2007 44.1064 25.1317 44.1064C26.0331 44.1064 26.7694 44.4132 27.3407 45.0269C27.912 45.6405 28.1977 46.5037 28.1977 47.6167C28.1977 47.6844 28.1955 47.786 28.1913 47.9214H23.164C23.2063 48.6619 23.4158 49.229 23.7924 49.6226C24.169 50.0161 24.6387 50.2129 25.2016 50.2129C25.6205 50.2129 25.9781 50.1029 26.2743 49.8828C26.5705 49.6628 26.8054 49.3115 26.9789 48.8291ZM23.2274 46.9819H26.9916C26.9408 46.4149 26.7969 45.9896 26.56 45.7061C26.196 45.266 25.7242 45.0459 25.1444 45.0459C24.6197 45.0459 24.1775 45.2215 23.8178 45.5728C23.4623 45.924 23.2655 46.3937 23.2274 46.9819Z" fill="white"/>
<path d="M30.8751 51V41.6943H32.0177V51H30.8751Z" fill="white"/>
<path d="M37.5896 49.978L37.7547 50.9873C37.4331 51.055 37.1453 51.0889 36.8914 51.0889C36.4767 51.0889 36.1551 51.0233 35.9266 50.8921C35.698 50.7609 35.5372 50.5895 35.4441 50.3779C35.351 50.1621 35.3045 49.7114 35.3045 49.0259V45.1475H34.4666V44.2588H35.3045V42.5894L36.4407 41.9038V44.2588H37.5896V45.1475H36.4407V49.0894C36.4407 49.4152 36.4598 49.6247 36.4979 49.7178C36.5402 49.8109 36.6058 49.8849 36.6946 49.9399C36.7877 49.995 36.9189 50.0225 37.0882 50.0225C37.2151 50.0225 37.3823 50.0076 37.5896 49.978Z" fill="white"/>
<path d="M44.6279 48.8291L45.8086 48.9751C45.6224 49.6649 45.2775 50.2002 44.7739 50.5811C44.2703 50.9619 43.6271 51.1523 42.8442 51.1523C41.8582 51.1523 41.0754 50.8498 40.4956 50.2446C39.9201 49.6353 39.6323 48.7826 39.6323 47.6865C39.6323 46.5524 39.9243 45.6722 40.5083 45.0459C41.0923 44.4196 41.8498 44.1064 42.7808 44.1064C43.6821 44.1064 44.4185 44.4132 44.9897 45.0269C45.561 45.6405 45.8467 46.5037 45.8467 47.6167C45.8467 47.6844 45.8446 47.786 45.8403 47.9214H40.813C40.8553 48.6619 41.0648 49.229 41.4414 49.6226C41.818 50.0161 42.2878 50.2129 42.8506 50.2129C43.2695 50.2129 43.6271 50.1029 43.9233 49.8828C44.2196 49.6628 44.4544 49.3115 44.6279 48.8291ZM40.8765 46.9819H44.6406C44.5898 46.4149 44.446 45.9896 44.209 45.7061C43.8451 45.266 43.3732 45.0459 42.7935 45.0459C42.2687 45.0459 41.8265 45.2215 41.4668 45.5728C41.1113 45.924 40.9146 46.3937 40.8765 46.9819Z" fill="white"/>
<path d="M48.5368 51V44.2588H49.5651V45.2808C49.8275 44.8026 50.0687 44.4873 50.2888 44.335C50.5131 44.1826 50.7585 44.1064 51.0251 44.1064C51.4102 44.1064 51.8016 44.2292 52.1994 44.4746L51.8059 45.5347C51.5266 45.3696 51.2473 45.2871 50.968 45.2871C50.7183 45.2871 50.494 45.3633 50.2951 45.5156C50.0962 45.6637 49.9545 45.8711 49.8698 46.1377C49.7429 46.5439 49.6794 46.9883 49.6794 47.4707V51H48.5368Z" fill="white"/>
<path d="M59.3697 51V45.1475H58.3605V44.2588H59.3697V43.5415C59.3697 43.0887 59.4099 42.7523 59.4903 42.5322C59.6004 42.236 59.7929 41.9969 60.068 41.8149C60.3473 41.6287 60.7366 41.5356 61.2359 41.5356C61.5576 41.5356 61.913 41.5737 62.3023 41.6499L62.131 42.6465C61.894 42.6042 61.6697 42.583 61.4581 42.583C61.1111 42.583 60.8657 42.6571 60.7218 42.8052C60.5779 42.9533 60.506 43.2305 60.506 43.6367V44.2588H61.8199V45.1475H60.506V51H59.3697Z" fill="white"/>
<path d="M63.5896 47.6294C63.5896 46.381 63.9367 45.4564 64.6307 44.8555C65.2104 44.3561 65.9171 44.1064 66.7508 44.1064C67.6775 44.1064 68.435 44.4111 69.0232 45.0205C69.6115 45.6257 69.9056 46.4635 69.9056 47.5342C69.9056 48.4017 69.7744 49.0851 69.512 49.5845C69.2539 50.0796 68.8751 50.4647 68.3758 50.7397C67.8807 51.0148 67.339 51.1523 66.7508 51.1523C65.8071 51.1523 65.0433 50.8498 64.4593 50.2446C63.8795 49.6395 63.5896 48.7677 63.5896 47.6294ZM64.764 47.6294C64.764 48.4927 64.9523 49.1401 65.3289 49.5718C65.7055 49.9992 66.1795 50.2129 66.7508 50.2129C67.3178 50.2129 67.7897 49.9971 68.1663 49.5654C68.5429 49.1338 68.7312 48.4757 68.7312 47.5913C68.7312 46.7576 68.5408 46.1271 68.16 45.6997C67.7833 45.2681 67.3136 45.0522 66.7508 45.0522C66.1795 45.0522 65.7055 45.266 65.3289 45.6934C64.9523 46.1208 64.764 46.7661 64.764 47.6294Z" fill="white"/>
<path d="M72.5386 51V44.2588H73.5669V45.2808C73.8293 44.8026 74.0705 44.4873 74.2905 44.335C74.5148 44.1826 74.7603 44.1064 75.0269 44.1064C75.4119 44.1064 75.8034 44.2292 76.2012 44.4746L75.8076 45.5347C75.5283 45.3696 75.249 45.2871 74.9697 45.2871C74.7201 45.2871 74.4958 45.3633 74.2969 45.5156C74.098 45.6637 73.9562 45.8711 73.8716 46.1377C73.7446 46.5439 73.6812 46.9883 73.6812 47.4707V51H72.5386Z" fill="white"/>
<path d="M83.0985 53.5835V44.2588H84.1395V45.1348C84.385 44.792 84.6622 44.536 84.9711 44.3667C85.28 44.1932 85.6545 44.1064 86.0946 44.1064C86.6702 44.1064 87.178 44.2546 87.6181 44.5508C88.0582 44.847 88.3904 45.266 88.6146 45.8076C88.8389 46.3451 88.9511 46.9354 88.9511 47.5786C88.9511 48.2684 88.8262 48.8905 88.5766 49.4448C88.3311 49.995 87.9714 50.4181 87.4975 50.7144C87.0277 51.0063 86.5326 51.1523 86.0121 51.1523C85.6312 51.1523 85.2885 51.0719 84.9838 50.9111C84.6833 50.7503 84.4358 50.5472 84.2411 50.3018V53.5835H83.0985ZM84.1332 47.6675C84.1332 48.535 84.3088 49.1761 84.6601 49.5908C85.0113 50.0055 85.4366 50.2129 85.9359 50.2129C86.4437 50.2129 86.8775 49.9992 87.2372 49.5718C87.6011 49.1401 87.7831 48.4736 87.7831 47.5723C87.7831 46.7132 87.6054 46.07 87.2499 45.6426C86.8987 45.2152 86.4776 45.0015 85.9867 45.0015C85.5001 45.0015 85.0684 45.23 84.6918 45.687C84.3194 46.1398 84.1332 46.8 84.1332 47.6675Z" fill="white"/>
<path d="M96.2496 48.8291L97.4303 48.9751C97.2441 49.6649 96.8992 50.2002 96.3956 50.5811C95.892 50.9619 95.2488 51.1523 94.4659 51.1523C93.4799 51.1523 92.697 50.8498 92.1173 50.2446C91.5418 49.6353 91.254 48.7826 91.254 47.6865C91.254 46.5524 91.546 45.6722 92.13 45.0459C92.714 44.4196 93.4715 44.1064 94.4024 44.1064C95.3038 44.1064 96.0401 44.4132 96.6114 45.0269C97.1827 45.6405 97.4684 46.5037 97.4684 47.6167C97.4684 47.6844 97.4662 47.786 97.462 47.9214H92.4347C92.477 48.6619 92.6865 49.229 93.0631 49.6226C93.4397 50.0161 93.9094 50.2129 94.4723 50.2129C94.8912 50.2129 95.2488 50.1029 95.545 49.8828C95.8412 49.6628 96.0761 49.3115 96.2496 48.8291ZM92.4981 46.9819H96.2623C96.2115 46.4149 96.0676 45.9896 95.8307 45.7061C95.4667 45.266 94.9949 45.0459 94.4151 45.0459C93.8904 45.0459 93.4482 45.2215 93.0885 45.5728C92.733 45.924 92.5362 46.3937 92.4981 46.9819Z" fill="white"/>
<path d="M102.666 49.978L102.831 50.9873C102.509 51.055 102.221 51.0889 101.968 51.0889C101.553 51.0889 101.231 51.0233 101.003 50.8921C100.774 50.7609 100.613 50.5895 100.52 50.3779C100.427 50.1621 100.381 49.7114 100.381 49.0259V45.1475H99.5428V44.2588H100.381V42.5894L101.517 41.9038V44.2588H102.666V45.1475H101.517V49.0894C101.517 49.4152 101.536 49.6247 101.574 49.7178C101.616 49.8109 101.682 49.8849 101.771 49.9399C101.864 49.995 101.995 50.0225 102.164 50.0225C102.291 50.0225 102.458 50.0076 102.666 49.978Z" fill="white"/>
<path d="M104.632 48.9878L105.762 48.8101C105.826 49.2629 106.001 49.6099 106.289 49.8511C106.581 50.0923 106.987 50.2129 107.508 50.2129C108.033 50.2129 108.422 50.1071 108.676 49.8955C108.93 49.6797 109.057 49.4279 109.057 49.1401C109.057 48.882 108.944 48.6789 108.72 48.5308C108.564 48.4292 108.174 48.3001 107.552 48.1436C106.714 47.932 106.132 47.75 105.807 47.5977C105.485 47.4411 105.24 47.2274 105.07 46.9565C104.905 46.6815 104.823 46.3789 104.823 46.0488C104.823 45.7484 104.89 45.4712 105.026 45.2173C105.166 44.9591 105.354 44.7454 105.591 44.5762C105.769 44.445 106.01 44.335 106.314 44.2461C106.623 44.153 106.953 44.1064 107.305 44.1064C107.834 44.1064 108.297 44.1826 108.695 44.335C109.097 44.4873 109.393 44.6947 109.583 44.957C109.774 45.2152 109.905 45.5622 109.977 45.998L108.86 46.1504C108.809 45.8034 108.661 45.5326 108.416 45.3379C108.174 45.1432 107.832 45.0459 107.387 45.0459C106.862 45.0459 106.488 45.1326 106.264 45.3062C106.039 45.4797 105.927 45.6828 105.927 45.9155C105.927 46.0636 105.974 46.1969 106.067 46.3154C106.16 46.4382 106.306 46.5397 106.505 46.6201C106.619 46.6624 106.956 46.7598 107.514 46.9121C108.322 47.1279 108.885 47.3057 109.203 47.4453C109.524 47.5807 109.776 47.7796 109.958 48.042C110.14 48.3044 110.231 48.6302 110.231 49.0195C110.231 49.4004 110.119 49.7601 109.895 50.0986C109.674 50.4329 109.355 50.6932 108.936 50.8794C108.517 51.0614 108.043 51.1523 107.514 51.1523C106.638 51.1523 105.97 50.9704 105.508 50.6064C105.051 50.2425 104.759 49.703 104.632 48.9878Z" fill="white"/>
<path d="M117.814 43.0083V41.6943H118.956V43.0083H117.814ZM117.814 51V44.2588H118.956V51H117.814Z" fill="white"/>
<path d="M122.002 51V44.2588H123.03V45.2173C123.525 44.4767 124.241 44.1064 125.176 44.1064C125.582 44.1064 125.955 44.1805 126.293 44.3286C126.636 44.4725 126.892 44.6629 127.061 44.8999C127.23 45.1369 127.349 45.4183 127.417 45.7441C127.459 45.9557 127.48 46.326 127.48 46.855V51H126.338V46.8994C126.338 46.4339 126.293 46.0869 126.204 45.8584C126.115 45.6257 125.957 45.4416 125.728 45.3062C125.504 45.1665 125.239 45.0967 124.935 45.0967C124.448 45.0967 124.027 45.2511 123.671 45.5601C123.32 45.869 123.145 46.4551 123.145 47.3184V51H122.002Z" fill="white"/>
<path d="M135.552 51V41.6943H139.043C139.754 41.6943 140.323 41.7896 140.75 41.98C141.182 42.1662 141.519 42.4561 141.76 42.8496C142.005 43.2389 142.128 43.6473 142.128 44.0747C142.128 44.4725 142.02 44.847 141.804 45.1982C141.588 45.5495 141.263 45.833 140.827 46.0488C141.389 46.2139 141.821 46.4953 142.122 46.8931C142.426 47.2909 142.579 47.7606 142.579 48.3022C142.579 48.7381 142.486 49.1444 142.299 49.521C142.117 49.8934 141.891 50.1812 141.62 50.3843C141.349 50.5874 141.009 50.7419 140.598 50.8477C140.192 50.9492 139.693 51 139.1 51H135.552ZM136.783 45.6045H138.795C139.341 45.6045 139.733 45.5685 139.97 45.4966C140.283 45.4035 140.518 45.249 140.674 45.0332C140.835 44.8174 140.916 44.5465 140.916 44.2207C140.916 43.9118 140.841 43.641 140.693 43.4082C140.545 43.1712 140.334 43.0104 140.059 42.9258C139.784 42.8369 139.312 42.7925 138.643 42.7925H136.783V45.6045ZM136.783 49.9019H139.1C139.498 49.9019 139.777 49.887 139.938 49.8574C140.222 49.8066 140.458 49.722 140.649 49.6035C140.839 49.485 140.996 49.3136 141.119 49.0894C141.241 48.8608 141.303 48.5985 141.303 48.3022C141.303 47.9552 141.214 47.6548 141.036 47.4009C140.858 47.1427 140.611 46.9629 140.293 46.8613C139.98 46.7555 139.528 46.7026 138.935 46.7026H136.783V49.9019Z" fill="white"/>
<path d="M145.002 47.6294C145.002 46.381 145.349 45.4564 146.043 44.8555C146.623 44.3561 147.33 44.1064 148.163 44.1064C149.09 44.1064 149.848 44.4111 150.436 45.0205C151.024 45.6257 151.318 46.4635 151.318 47.5342C151.318 48.4017 151.187 49.0851 150.925 49.5845C150.666 50.0796 150.288 50.4647 149.788 50.7397C149.293 51.0148 148.751 51.1523 148.163 51.1523C147.22 51.1523 146.456 50.8498 145.872 50.2446C145.292 49.6395 145.002 48.7677 145.002 47.6294ZM146.176 47.6294C146.176 48.4927 146.365 49.1401 146.741 49.5718C147.118 49.9992 147.592 50.2129 148.163 50.2129C148.73 50.2129 149.202 49.9971 149.579 49.5654C149.955 49.1338 150.144 48.4757 150.144 47.5913C150.144 46.7576 149.953 46.1271 149.572 45.6997C149.196 45.2681 148.726 45.0522 148.163 45.0522C147.592 45.0522 147.118 45.266 146.741 45.6934C146.365 46.1208 146.176 46.7661 146.176 47.6294Z" fill="white"/>
<path d="M153.507 48.9878L154.637 48.8101C154.7 49.2629 154.876 49.6099 155.163 49.8511C155.455 50.0923 155.862 50.2129 156.382 50.2129C156.907 50.2129 157.296 50.1071 157.55 49.8955C157.804 49.6797 157.931 49.4279 157.931 49.1401C157.931 48.882 157.819 48.6789 157.595 48.5308C157.438 48.4292 157.049 48.3001 156.427 48.1436C155.589 47.932 155.007 47.75 154.681 47.5977C154.359 47.4411 154.114 47.2274 153.945 46.9565C153.78 46.6815 153.697 46.3789 153.697 46.0488C153.697 45.7484 153.765 45.4712 153.9 45.2173C154.04 44.9591 154.228 44.7454 154.465 44.5762C154.643 44.445 154.884 44.335 155.189 44.2461C155.498 44.153 155.828 44.1064 156.179 44.1064C156.708 44.1064 157.171 44.1826 157.569 44.335C157.971 44.4873 158.267 44.6947 158.458 44.957C158.648 45.2152 158.78 45.5622 158.851 45.998L157.734 46.1504C157.684 45.8034 157.535 45.5326 157.29 45.3379C157.049 45.1432 156.706 45.0459 156.262 45.0459C155.737 45.0459 155.362 45.1326 155.138 45.3062C154.914 45.4797 154.802 45.6828 154.802 45.9155C154.802 46.0636 154.848 46.1969 154.941 46.3154C155.034 46.4382 155.18 46.5397 155.379 46.6201C155.494 46.6624 155.83 46.7598 156.389 46.9121C157.197 47.1279 157.76 47.3057 158.077 47.4453C158.399 47.5807 158.65 47.7796 158.832 48.042C159.014 48.3044 159.105 48.6302 159.105 49.0195C159.105 49.4004 158.993 49.7601 158.769 50.0986C158.549 50.4329 158.229 50.6932 157.81 50.8794C157.392 51.0614 156.918 51.1523 156.389 51.1523C155.513 51.1523 154.844 50.9704 154.383 50.6064C153.926 50.2425 153.634 49.703 153.507 48.9878Z" fill="white"/>
<path d="M164.258 49.978L164.423 50.9873C164.102 51.055 163.814 51.0889 163.56 51.0889C163.145 51.0889 162.824 51.0233 162.595 50.8921C162.367 50.7609 162.206 50.5895 162.113 50.3779C162.02 50.1621 161.973 49.7114 161.973 49.0259V45.1475H161.135V44.2588H161.973V42.5894L163.109 41.9038V44.2588H164.258V45.1475H163.109V49.0894C163.109 49.4152 163.129 49.6247 163.167 49.7178C163.209 49.8109 163.275 49.8849 163.363 49.9399C163.456 49.995 163.588 50.0225 163.757 50.0225C163.884 50.0225 164.051 50.0076 164.258 49.978Z" fill="white"/>
<path d="M166.257 47.6294C166.257 46.381 166.604 45.4564 167.298 44.8555C167.877 44.3561 168.584 44.1064 169.418 44.1064C170.345 44.1064 171.102 44.4111 171.69 45.0205C172.278 45.6257 172.573 46.4635 172.573 47.5342C172.573 48.4017 172.441 49.0851 172.179 49.5845C171.921 50.0796 171.542 50.4647 171.043 50.7397C170.548 51.0148 170.006 51.1523 169.418 51.1523C168.474 51.1523 167.71 50.8498 167.126 50.2446C166.547 49.6395 166.257 48.7677 166.257 47.6294ZM167.431 47.6294C167.431 48.4927 167.619 49.1401 167.996 49.5718C168.373 49.9992 168.846 50.2129 169.418 50.2129C169.985 50.2129 170.457 49.9971 170.833 49.5654C171.21 49.1338 171.398 48.4757 171.398 47.5913C171.398 46.7576 171.208 46.1271 170.827 45.6997C170.45 45.2681 169.981 45.0522 169.418 45.0522C168.846 45.0522 168.373 45.266 167.996 45.6934C167.619 46.1208 167.431 46.7661 167.431 47.6294Z" fill="white"/>
<path d="M175.218 51V44.2588H176.247V45.2173C176.742 44.4767 177.457 44.1064 178.392 44.1064C178.798 44.1064 179.171 44.1805 179.509 44.3286C179.852 44.4725 180.108 44.6629 180.277 44.8999C180.447 45.1369 180.565 45.4183 180.633 45.7441C180.675 45.9557 180.696 46.326 180.696 46.855V51H179.554V46.8994C179.554 46.4339 179.509 46.0869 179.42 45.8584C179.332 45.6257 179.173 45.4416 178.944 45.3062C178.72 45.1665 178.456 45.0967 178.151 45.0967C177.664 45.0967 177.243 45.2511 176.888 45.5601C176.536 45.869 176.361 46.4551 176.361 47.3184V51H175.218Z" fill="white"/>
<path d="M10.2969 23.5156C8.97396 23.5156 7.70312 23.2552 6.48438 22.7344C5.27604 22.2135 4.20312 21.4635 3.26562 20.4844C2.33854 19.5052 1.59896 18.3125 1.04688 16.9062C0.494792 15.4896 0.21875 13.8958 0.21875 12.125C0.21875 10.3542 0.489583 8.75 1.03125 7.3125C1.57292 5.86458 2.32292 4.61979 3.28125 3.57812C4.22917 2.54688 5.34896 1.75 6.64062 1.1875C7.93229 0.625 9.3125 0.34375 10.7812 0.34375C11.875 0.34375 12.8646 0.479167 13.75 0.75C14.6354 1.02083 15.4792 1.40104 16.2812 1.89062L16.9219 0.828125H18.1719L18.3125 8.73438H17.0312C16.8646 7.96354 16.6146 7.13021 16.2812 6.23438C15.9479 5.32812 15.5573 4.5625 15.1094 3.9375C14.6094 3.22917 14.0156 2.67708 13.3281 2.28125C12.6406 1.875 11.8542 1.67188 10.9688 1.67188C9.95833 1.67188 9.01562 1.89583 8.14062 2.34375C7.27604 2.79167 6.52604 3.45312 5.89062 4.32812C5.28646 5.17188 4.8125 6.24479 4.46875 7.54688C4.125 8.84896 3.95312 10.3021 3.95312 11.9062C3.95312 13.3229 4.13021 14.625 4.48438 15.8125C4.84896 16.9896 5.36458 18.026 6.03125 18.9219C6.69792 19.8073 7.48438 20.5 8.39062 21C9.30729 21.5 10.3281 21.75 11.4531 21.75C12.2969 21.75 13.0729 21.6198 13.7812 21.3594C14.4896 21.0885 15.1042 20.7344 15.625 20.2969C16.1458 19.8385 16.6042 19.3177 17 18.7344C17.3958 18.151 17.7188 17.5156 17.9688 16.8281L19.1406 17.3906C18.2448 19.5885 17.0573 21.1615 15.5781 22.1094C14.099 23.0469 12.3385 23.5156 10.2969 23.5156Z" fill="#F1CDB3"/>
<path d="M37.6231 15.1406C37.6231 16.224 37.4512 17.2917 37.1075 18.3438C36.7637 19.3854 36.2742 20.2708 35.6387 21C34.92 21.8333 34.0867 22.4531 33.1387 22.8594C32.1908 23.2656 31.1283 23.4688 29.9513 23.4688C28.9721 23.4688 28.0398 23.2865 27.1544 22.9219C26.269 22.5469 25.4825 22.0052 24.795 21.2969C24.1179 20.599 23.5763 19.75 23.17 18.75C22.7742 17.7396 22.5763 16.6094 22.5763 15.3594C22.5763 12.9531 23.2742 10.9844 24.67 9.45312C26.0763 7.92188 27.9148 7.15625 30.1856 7.15625C32.3419 7.15625 34.1179 7.88542 35.5137 9.34375C36.92 10.7917 37.6231 12.724 37.6231 15.1406ZM34.3887 15.1719C34.3887 14.3906 34.3106 13.5677 34.1544 12.7031C33.9981 11.8281 33.7637 11.0885 33.4512 10.4844C33.1179 9.83854 32.6804 9.32292 32.1387 8.9375C31.5971 8.54167 30.9356 8.34375 30.1544 8.34375C29.3523 8.34375 28.6648 8.54167 28.0919 8.9375C27.5294 9.33333 27.071 9.875 26.7169 10.5625C26.3835 11.1979 26.1492 11.9219 26.0138 12.7344C25.8783 13.5469 25.8106 14.3333 25.8106 15.0938C25.8106 16.0938 25.8888 17.0208 26.045 17.875C26.2117 18.7188 26.4721 19.474 26.8263 20.1406C27.1804 20.8073 27.6231 21.3333 28.1544 21.7188C28.696 22.0938 29.3627 22.2812 30.1544 22.2812C31.4565 22.2812 32.4877 21.651 33.2481 20.3906C34.0085 19.1302 34.3887 17.3906 34.3887 15.1719Z" fill="#F1CDB3"/>
<path d="M53.9806 23H41.5119V22.1719L50.2306 8.85938H48.0744C47.1681 8.85938 46.4598 8.875 45.9494 8.90625C45.439 8.9375 44.9702 9.04167 44.5431 9.21875C44.2515 9.33333 43.9754 9.66146 43.715 10.2031C43.465 10.7448 43.2463 11.4531 43.0588 12.3281H42.1056V7.59375H53.8869V8.23438L45.0275 21.7344C45.4025 21.7448 45.814 21.7552 46.2619 21.7656C46.7098 21.7656 47.1942 21.7656 47.715 21.7656C48.1317 21.7656 48.564 21.7604 49.0119 21.75C49.4702 21.7396 50.0535 21.7135 50.7619 21.6719C51.1785 21.651 51.491 21.5104 51.6994 21.25C51.9181 20.9896 52.0848 20.6927 52.1994 20.3594C52.314 20.0573 52.4494 19.6406 52.6056 19.1094C52.7723 18.5781 52.9181 18.0625 53.0431 17.5625H53.9806V23Z" fill="#F1CDB3"/>
<path d="M56.7444 28.0312C56.7444 27.5104 56.885 27.0833 57.1662 26.75C57.4579 26.4271 57.8173 26.2656 58.2444 26.2656C58.5777 26.2656 58.8642 26.3281 59.1037 26.4531C59.3433 26.5781 59.5569 26.7396 59.7444 26.9375C59.9006 27.0938 60.0673 27.3073 60.2444 27.5781C60.4215 27.849 60.5621 28.0729 60.6662 28.25C61.1871 27.9688 61.8069 27.2344 62.5256 26.0469C63.2548 24.8594 63.7808 23.8177 64.1037 22.9219C63.1142 20.4531 62.2183 18.2448 61.4162 16.2969C60.6142 14.349 59.7756 12.3333 58.9006 10.25C58.7027 9.77083 58.3694 9.40104 57.9006 9.14062C57.4319 8.86979 56.9631 8.69792 56.4944 8.625V7.59375H63.5256V8.6875C63.2131 8.69792 62.8381 8.76562 62.4006 8.89062C61.9631 9.00521 61.7444 9.14062 61.7444 9.29688C61.7444 9.35938 61.7652 9.46354 61.8069 9.60938C61.859 9.75521 61.9162 9.90625 61.9787 10.0625C62.3746 11.0938 62.9787 12.5833 63.7912 14.5312C64.6037 16.4688 65.234 18.0208 65.6819 19.1875C66.1506 18.0729 66.635 16.9219 67.135 15.7344C67.6454 14.5365 68.2131 13.125 68.8381 11.5C68.911 11.3021 69.0152 11.0312 69.1506 10.6875C69.286 10.3333 69.3537 10.0312 69.3537 9.78125C69.3537 9.51042 69.1142 9.26042 68.635 9.03125C68.1662 8.79167 67.7183 8.64583 67.2912 8.59375V7.59375H73.01V8.5625C72.6975 8.61458 72.286 8.79688 71.7756 9.10938C71.2652 9.41146 70.885 9.84375 70.635 10.4062C69.3954 13.2812 68.2912 15.901 67.3225 18.2656C66.3642 20.6302 65.635 22.3698 65.135 23.4844C64.4787 24.9427 63.8902 26.0781 63.3694 26.8906C62.859 27.7135 62.359 28.3594 61.8694 28.8281C61.3902 29.2656 60.9527 29.5573 60.5569 29.7031C60.1715 29.8594 59.7704 29.9375 59.3537 29.9375C58.5412 29.9375 57.9006 29.7448 57.4319 29.3594C56.9735 28.974 56.7444 28.5312 56.7444 28.0312Z" fill="#F1CDB3"/>
<path d="M108.584 23H99.3812V21.8906C99.6312 21.8698 99.9906 21.8385 100.459 21.7969C100.939 21.7552 101.267 21.6927 101.444 21.6094C101.756 21.4844 101.985 21.2969 102.131 21.0469C102.277 20.7865 102.35 20.4531 102.35 20.0469V12.1562H91.9281V19.875C91.9281 20.2396 91.9854 20.5469 92.1 20.7969C92.225 21.0469 92.4646 21.2656 92.8187 21.4531C92.9958 21.5469 93.3083 21.6406 93.7562 21.7344C94.2146 21.8281 94.574 21.8802 94.8344 21.8906V23H85.6312V21.8906C85.8812 21.8698 86.2406 21.8385 86.7094 21.7969C87.1885 21.7552 87.5167 21.6927 87.6937 21.6094C88.0062 21.4844 88.2354 21.2969 88.3812 21.0469C88.5271 20.7865 88.6 20.4531 88.6 20.0469V4.04688C88.6 3.71354 88.5323 3.41146 88.3969 3.14062C88.2615 2.85938 88.0271 2.64062 87.6937 2.48438C87.4125 2.34896 87.0687 2.22917 86.6625 2.125C86.2667 2.02083 85.9229 1.95833 85.6312 1.9375V0.828125H94.8344V1.9375C94.5427 1.94792 94.1833 1.99479 93.7562 2.07812C93.3396 2.16146 93.0271 2.23958 92.8187 2.3125C92.4646 2.4375 92.225 2.64583 92.1 2.9375C91.9854 3.22917 91.9281 3.54688 91.9281 3.89062V10.7656H102.35V4.04688C102.35 3.71354 102.282 3.41146 102.147 3.14062C102.011 2.85938 101.777 2.64062 101.444 2.48438C101.162 2.34896 100.819 2.22917 100.412 2.125C100.017 2.02083 99.6729 1.95833 99.3812 1.9375V0.828125H108.584V1.9375C108.293 1.94792 107.933 1.99479 107.506 2.07812C107.09 2.16146 106.777 2.23958 106.569 2.3125C106.215 2.4375 105.975 2.64583 105.85 2.9375C105.735 3.22917 105.678 3.54688 105.678 3.89062V19.875C105.678 20.2396 105.735 20.5469 105.85 20.7969C105.975 21.0469 106.215 21.2656 106.569 21.4531C106.746 21.5469 107.058 21.6406 107.506 21.7344C107.965 21.8281 108.324 21.8802 108.584 21.8906V23Z" fill="#F1CDB3"/>
<path d="M128.254 15.1406C128.254 16.224 128.082 17.2917 127.739 18.3438C127.395 19.3854 126.905 20.2708 126.27 21C125.551 21.8333 124.718 22.4531 123.77 22.8594C122.822 23.2656 121.76 23.4688 120.582 23.4688C119.603 23.4688 118.671 23.2865 117.786 22.9219C116.9 22.5469 116.114 22.0052 115.426 21.2969C114.749 20.599 114.207 19.75 113.801 18.75C113.405 17.7396 113.207 16.6094 113.207 15.3594C113.207 12.9531 113.905 10.9844 115.301 9.45312C116.707 7.92188 118.546 7.15625 120.817 7.15625C122.973 7.15625 124.749 7.88542 126.145 9.34375C127.551 10.7917 128.254 12.724 128.254 15.1406ZM125.02 15.1719C125.02 14.3906 124.942 13.5677 124.786 12.7031C124.629 11.8281 124.395 11.0885 124.082 10.4844C123.749 9.83854 123.312 9.32292 122.77 8.9375C122.228 8.54167 121.567 8.34375 120.786 8.34375C119.984 8.34375 119.296 8.54167 118.723 8.9375C118.161 9.33333 117.702 9.875 117.348 10.5625C117.015 11.1979 116.78 11.9219 116.645 12.7344C116.51 13.5469 116.442 14.3333 116.442 15.0938C116.442 16.0938 116.52 17.0208 116.676 17.875C116.843 18.7188 117.103 19.474 117.457 20.1406C117.812 20.8073 118.254 21.3333 118.786 21.7188C119.327 22.0938 119.994 22.2812 120.786 22.2812C122.088 22.2812 123.119 21.651 123.879 20.3906C124.64 19.1302 125.02 17.3906 125.02 15.1719Z" fill="#F1CDB3"/>
<path d="M148.924 22.7188L143.909 23.0625L143.674 22.8438V20.8906H143.581C143.331 21.151 143.049 21.4323 142.737 21.7344C142.424 22.026 142.065 22.2917 141.659 22.5312C141.19 22.8125 140.737 23.026 140.299 23.1719C139.862 23.3177 139.242 23.3906 138.44 23.3906C137.075 23.3906 136.034 22.9479 135.315 22.0625C134.607 21.1667 134.253 19.8698 134.253 18.1719V10.7969C134.253 10.4219 134.18 10.1094 134.034 9.85938C133.898 9.59896 133.695 9.375 133.424 9.1875C133.237 9.0625 133.003 8.97396 132.721 8.92188C132.44 8.85938 132.143 8.81771 131.831 8.79688V7.78125L136.971 7.40625L137.206 7.625V18.3281C137.206 19.4427 137.456 20.2812 137.956 20.8438C138.456 21.4062 139.055 21.6875 139.753 21.6875C140.325 21.6875 140.836 21.599 141.284 21.4219C141.732 21.2448 142.107 21.0365 142.409 20.7969C142.69 20.5781 142.935 20.349 143.143 20.1094C143.362 19.8594 143.529 19.6302 143.643 19.4219V10.6875C143.643 10.3438 143.57 10.0417 143.424 9.78125C143.279 9.51042 143.075 9.28125 142.815 9.09375C142.628 8.96875 142.346 8.89583 141.971 8.875C141.607 8.84375 141.195 8.81771 140.737 8.79688V7.78125L146.331 7.40625L146.565 7.625V19.8594C146.565 20.2135 146.638 20.5156 146.784 20.7656C146.93 21.0156 147.133 21.2292 147.393 21.4062C147.581 21.5208 147.805 21.599 148.065 21.6406C148.325 21.6719 148.612 21.6927 148.924 21.7031V22.7188Z" fill="#F1CDB3"/>
<path d="M162.907 15.4531C163.334 15.8281 163.662 16.2604 163.891 16.75C164.12 17.2396 164.235 17.8385 164.235 18.5469C164.235 19.974 163.699 21.1406 162.626 22.0469C161.563 22.9531 160.183 23.4062 158.485 23.4062C157.589 23.4062 156.761 23.2448 156.001 22.9219C155.251 22.599 154.714 22.3021 154.391 22.0312L154.079 23.0469H152.907L152.751 17.6875H153.829C153.912 18.0938 154.089 18.5677 154.36 19.1094C154.631 19.651 154.959 20.1406 155.344 20.5781C155.751 21.0365 156.235 21.4219 156.798 21.7344C157.37 22.0469 158.011 22.2031 158.719 22.2031C159.719 22.2031 160.49 21.9792 161.032 21.5312C161.574 21.0729 161.844 20.4219 161.844 19.5781C161.844 19.1406 161.756 18.7656 161.579 18.4531C161.412 18.1302 161.162 17.849 160.829 17.6094C160.485 17.3698 160.063 17.1562 159.563 16.9688C159.063 16.7708 158.506 16.5781 157.891 16.3906C157.402 16.2448 156.855 16.0469 156.251 15.7969C155.657 15.5365 155.146 15.2344 154.719 14.8906C154.261 14.526 153.886 14.0781 153.594 13.5469C153.303 13.0156 153.157 12.3906 153.157 11.6719C153.157 10.4115 153.626 9.34375 154.563 8.46875C155.501 7.59375 156.756 7.15625 158.329 7.15625C158.933 7.15625 159.548 7.23438 160.173 7.39062C160.808 7.54688 161.324 7.73438 161.719 7.95312L162.079 7.14062H163.204L163.438 12.0938H162.36C162.141 10.9896 161.667 10.0938 160.938 9.40625C160.219 8.70833 159.339 8.35938 158.298 8.35938C157.443 8.35938 156.771 8.57292 156.282 9C155.792 9.42708 155.548 9.94271 155.548 10.5469C155.548 11.0156 155.626 11.4062 155.782 11.7188C155.949 12.0312 156.193 12.2969 156.516 12.5156C156.829 12.724 157.219 12.9219 157.688 13.1094C158.167 13.2865 158.756 13.4896 159.454 13.7188C160.141 13.9375 160.787 14.1927 161.391 14.4844C162.006 14.776 162.511 15.099 162.907 15.4531Z" fill="#F1CDB3"/>
<path d="M182.186 19.375C181.54 20.6042 180.676 21.5833 179.592 22.3125C178.509 23.0417 177.264 23.4062 175.858 23.4062C174.619 23.4062 173.53 23.1875 172.592 22.75C171.665 22.3125 170.9 21.7188 170.296 20.9688C169.691 20.2188 169.238 19.3438 168.936 18.3438C168.645 17.3438 168.499 16.2865 168.499 15.1719C168.499 14.1719 168.655 13.1927 168.967 12.2344C169.29 11.2656 169.759 10.3958 170.374 9.625C170.967 8.88542 171.702 8.29167 172.577 7.84375C173.462 7.38542 174.452 7.15625 175.546 7.15625C176.671 7.15625 177.634 7.33333 178.436 7.6875C179.238 8.04167 179.889 8.52604 180.389 9.14062C180.869 9.72396 181.223 10.4115 181.452 11.2031C181.691 11.9948 181.811 12.8542 181.811 13.7812V14.8125H171.608C171.608 15.8229 171.702 16.7396 171.889 17.5625C172.087 18.3854 172.395 19.1094 172.811 19.7344C173.217 20.3385 173.749 20.8177 174.405 21.1719C175.061 21.5156 175.842 21.6875 176.749 21.6875C177.676 21.6875 178.473 21.474 179.139 21.0469C179.816 20.6094 180.467 19.8281 181.092 18.7031L182.186 19.375ZM178.733 13.5C178.733 12.9167 178.681 12.2917 178.577 11.625C178.483 10.9583 178.327 10.401 178.108 9.95312C177.869 9.47396 177.54 9.08333 177.124 8.78125C176.707 8.47917 176.171 8.32812 175.514 8.32812C174.421 8.32812 173.509 8.78646 172.78 9.70312C172.061 10.6094 171.671 11.875 171.608 13.5H178.733Z" fill="#F1CDB3"/>
</svg>
