<svg fill="none" height="54" viewBox="0 0 183 54" width="183" xmlns="http://www.w3.org/2000/svg"><g fill="#fff"><path d="m3.58398 48.0103 1.16163-.1016c.05501.4655.18196.8485.38085 1.1489.20313.2962.51628.5375.93946.7236.42317.182.89925.273 1.42822.273.46973 0 .88444-.0698 1.24414-.2095.3597-.1396.6263-.3301.79981-.5713.17773-.2454.2666-.512.2666-.7998 0-.292-.08464-.5459-.25391-.7617-.16927-.22-.44857-.4041-.83789-.5522-.24967-.0974-.80192-.2476-1.65674-.4507-.85482-.2074-1.45361-.402-1.79638-.584-.44434-.2327-.77653-.5205-.99659-.8633-.21582-.347-.32373-.7342-.32373-1.1616 0-.4697.1333-.9077.39991-1.314.2666-.4104.65592-.7215 1.16796-.9331.51205-.2116 1.08122-.3174 1.70752-.3174.68978 0 1.29704.1122 1.82178.3365.52897.22.93522.5459 1.21878.9775.2835.4316.4358.9204.457 1.4663l-1.18066.0889c-.06348-.5882-.2793-1.0326-.64746-1.333-.36393-.3005-.90349-.4507-1.61866-.4507-.74479 0-1.28857.1375-1.63134.4126-.33854.2708-.50782.5988-.50782.9839 0 .3343.12061.6094.36182.8252.23698.2158.85482.438 1.85352.6665 1.00293.2243 1.69059.421 2.06299.5903.54166.2497.94161.5671 1.19971.9522.2581.3808.3872.8209.3872 1.3203 0 .4951-.1418.9627-.4253 1.4028-.2835.4359-.69189.7765-1.22509 1.022-.52897.2412-1.12565.3618-1.79004.3618-.84212 0-1.54883-.1227-2.12012-.3682-.56706-.2454-1.01351-.6136-1.33935-1.1045-.32162-.4951-.49089-1.0537-.50782-1.6757z"/><path d="m13.8278 51v-9.3057h1.1426v3.3389c.5332-.6178 1.2061-.9268 2.0186-.9268.4993 0 .9331.0995 1.3012.2984.3682.1946.6306.4655.7871.8125.1609.347.2413.8506.2413 1.5107v4.272h-1.1426v-4.272c0-.5713-.1249-.986-.3745-1.2441-.2455-.2624-.5946-.3936-1.0474-.3936-.3385 0-.658.0889-.9585.2666-.2962.1735-.5078.4105-.6348.711-.1269.3004-.1904.7151-.1904 1.2441v3.688z"/><path d="m26.9789 48.8291 1.1807.146c-.1862.6898-.5311 1.2251-1.0347 1.606-.5036.3808-1.1468.5712-1.9297.5712-.986 0-1.7689-.3025-2.3486-.9077-.5755-.6093-.8633-1.462-.8633-2.5581 0-1.1341.292-2.0143.876-2.6406s1.3414-.9395 2.2724-.9395c.9014 0 1.6377.3068 2.209.9205.5713.6136.857 1.4768.857 2.5898 0 .0677-.0022.1693-.0064.3047h-5.0273c.0423.7405.2518 1.3076.6284 1.7012.3766.3935.8463.5903 1.4092.5903.4189 0 .7765-.11 1.0727-.3301.2962-.22.5311-.5713.7046-1.0537zm-3.7515-1.8472h3.7642c-.0508-.567-.1947-.9923-.4316-1.2758-.364-.4401-.8358-.6602-1.4156-.6602-.5247 0-.9669.1756-1.3266.5269-.3555.3512-.5523.8209-.5904 1.4091z"/><path d="m30.8751 51v-9.3057h1.1426v9.3057z"/><path d="m37.5896 49.978.1651 1.0093c-.3216.0677-.6094.1016-.8633.1016-.4147 0-.7363-.0656-.9648-.1968-.2286-.1312-.3894-.3026-.4825-.5142-.0931-.2158-.1396-.6665-.1396-1.352v-3.8784h-.8379v-.8887h.8379v-1.6694l1.1362-.6856v2.355h1.1489v.8887h-1.1489v3.9419c0 .3258.0191.5353.0572.6284.0423.0931.1079.1671.1967.2221.0931.0551.2243.0826.3936.0826.1269 0 .2941-.0149.5014-.0445z"/><path d="m44.6279 48.8291 1.1807.146c-.1862.6898-.5311 1.2251-1.0347 1.606-.5036.3808-1.1468.5712-1.9297.5712-.986 0-1.7688-.3025-2.3486-.9077-.5755-.6093-.8633-1.462-.8633-2.5581 0-1.1341.292-2.0143.876-2.6406s1.3415-.9395 2.2725-.9395c.9013 0 1.6377.3068 2.2089.9205.5713.6136.857 1.4768.857 2.5898 0 .0677-.0021.1693-.0064.3047h-5.0273c.0423.7405.2518 1.3076.6284 1.7012.3766.3935.8464.5903 1.4092.5903.4189 0 .7765-.11 1.0727-.3301.2963-.22.5311-.5713.7046-1.0537zm-3.7514-1.8472h3.7641c-.0508-.567-.1946-.9923-.4316-1.2758-.3639-.4401-.8358-.6602-1.4155-.6602-.5248 0-.967.1756-1.3267.5269-.3555.3512-.5522.8209-.5903 1.4091z"/><path d="m48.5368 51v-6.7412h1.0283v1.022c.2624-.4782.5036-.7935.7237-.9458.2243-.1524.4697-.2286.7363-.2286.3851 0 .7765.1228 1.1743.3682l-.3935 1.0601c-.2793-.1651-.5586-.2476-.8379-.2476-.2497 0-.474.0762-.6729.2285-.1989.1481-.3406.3555-.4253.6221-.1269.4062-.1904.8506-.1904 1.333v3.5293z"/><path d="m59.3697 51v-5.8525h-1.0092v-.8887h1.0092v-.7173c0-.4528.0402-.7892.1206-1.0093.1101-.2962.3026-.5353.5777-.7173.2793-.1862.6686-.2793 1.1679-.2793.3217 0 .6771.0381 1.0664.1143l-.1713.9966c-.237-.0423-.4613-.0635-.6729-.0635-.347 0-.5924.0741-.7363.2222s-.2158.4253-.2158.8315v.6221h1.3139v.8887h-1.3139v5.8525z"/><path d="m63.5896 47.6294c0-1.2484.3471-2.173 1.0411-2.7739.5797-.4994 1.2864-.7491 2.1201-.7491.9267 0 1.6842.3047 2.2724.9141.5883.6052.8824 1.443.8824 2.5137 0 .8675-.1312 1.5509-.3936 2.0503-.2581.4951-.6369.8802-1.1362 1.1552-.4951.2751-1.0368.4126-1.625.4126-.9437 0-1.7075-.3025-2.2915-.9077-.5798-.6051-.8697-1.4769-.8697-2.6152zm1.1744 0c0 .8633.1883 1.5107.5649 1.9424.3766.4274.8506.6411 1.4219.6411.567 0 1.0389-.2158 1.4155-.6475.3766-.4316.5649-1.0897.5649-1.9741 0-.8337-.1904-1.4642-.5712-1.8916-.3767-.4316-.8464-.6475-1.4092-.6475-.5713 0-1.0453.2138-1.4219.6412s-.5649 1.0727-.5649 1.936z"/><path d="m72.5386 51v-6.7412h1.0283v1.022c.2624-.4782.5036-.7935.7236-.9458.2243-.1524.4698-.2286.7364-.2286.385 0 .7765.1228 1.1743.3682l-.3936 1.0601c-.2793-.1651-.5586-.2476-.8379-.2476-.2496 0-.4739.0762-.6728.2285-.1989.1481-.3407.3555-.4253.6221-.127.4062-.1904.8506-.1904 1.333v3.5293z"/><path d="m83.0985 53.5835v-9.3247h1.041v.876c.2455-.3428.5227-.5988.8316-.7681.3089-.1735.6834-.2603 1.1235-.2603.5756 0 1.0834.1482 1.5235.4444s.7723.7152.9965 1.2568c.2243.5375.3365 1.1278.3365 1.771 0 .6898-.1249 1.3119-.3745 1.8662-.2455.5502-.6052.9733-1.0791 1.2696-.4698.2919-.9649.4379-1.4854.4379-.3809 0-.7236-.0804-1.0283-.2412-.3005-.1608-.548-.3639-.7427-.6093v3.2817zm1.0347-5.916c0 .8675.1756 1.5086.5269 1.9233.3512.4147.7765.6221 1.2758.6221.5078 0 .9416-.2137 1.3013-.6411.3639-.4317.5459-1.0982.5459-1.9995 0-.8591-.1777-1.5023-.5332-1.9297-.3512-.4274-.7723-.6411-1.2632-.6411-.4866 0-.9183.2285-1.2949.6855-.3724.4528-.5586 1.113-.5586 1.9805z"/><path d="m96.2496 48.8291 1.1807.146c-.1862.6898-.5311 1.2251-1.0347 1.606-.5036.3808-1.1468.5712-1.9297.5712-.986 0-1.7689-.3025-2.3486-.9077-.5755-.6093-.8633-1.462-.8633-2.5581 0-1.1341.292-2.0143.876-2.6406s1.3415-.9395 2.2724-.9395c.9014 0 1.6377.3068 2.209.9205.5713.6136.857 1.4768.857 2.5898 0 .0677-.0022.1693-.0064.3047h-5.0273c.0423.7405.2518 1.3076.6284 1.7012.3766.3935.8463.5903 1.4092.5903.4189 0 .7765-.11 1.0727-.3301.2962-.22.5311-.5713.7046-1.0537zm-3.7515-1.8472h3.7642c-.0508-.567-.1947-.9923-.4316-1.2758-.364-.4401-.8358-.6602-1.4156-.6602-.5247 0-.9669.1756-1.3266.5269-.3555.3512-.5523.8209-.5904 1.4091z"/><path d="m102.666 49.978.165 1.0093c-.322.0677-.61.1016-.863.1016-.415 0-.737-.0656-.965-.1968-.229-.1312-.39-.3026-.483-.5142-.093-.2158-.139-.6665-.139-1.352v-3.8784h-.8382v-.8887h.8382v-1.6694l1.136-.6856v2.355h1.149v.8887h-1.149v3.9419c0 .3258.019.5353.057.6284.042.0931.108.1671.197.2221.093.0551.224.0826.393.0826.127 0 .294-.0149.502-.0445z"/><path d="m104.632 48.9878 1.13-.1777c.064.4528.239.7998.527 1.041.292.2412.698.3618 1.219.3618.525 0 .914-.1058 1.168-.3174.254-.2158.381-.4676.381-.7554 0-.2581-.113-.4612-.337-.6093-.156-.1016-.546-.2307-1.168-.3872-.838-.2116-1.42-.3936-1.745-.5459-.322-.1566-.567-.3703-.737-.6412-.165-.275-.247-.5776-.247-.9077 0-.3004.067-.5776.203-.8315.14-.2582.328-.4719.565-.6411.178-.1312.419-.2412.723-.3301.309-.0931.639-.1397.991-.1397.529 0 .992.0762 1.39.2286.402.1523.698.3597.888.622.191.2582.322.6052.394 1.041l-1.117.1524c-.051-.347-.199-.6178-.444-.8125-.242-.1947-.584-.292-1.029-.292-.525 0-.899.0867-1.123.2603-.225.1735-.337.3766-.337.6093 0 .1481.047.2814.14.3999.093.1228.239.2243.438.3047.114.0423.451.1397 1.009.292.808.2158 1.371.3936 1.689.5332.321.1354.573.3343.755.5967s.273.5882.273.9775c0 .3809-.112.7406-.336 1.0791-.221.3343-.54.5946-.959.7808-.419.182-.893.2729-1.422.2729-.876 0-1.544-.1819-2.006-.5459-.457-.3639-.749-.9034-.876-1.6186z"/><path d="m117.814 43.0083v-1.314h1.142v1.314zm0 7.9917v-6.7412h1.142v6.7412z"/><path d="m122.002 51v-6.7412h1.028v.9585c.495-.7406 1.211-1.1109 2.146-1.1109.406 0 .779.0741 1.117.2222.343.1439.599.3343.768.5713s.288.5184.356.8442c.042.2116.063.5819.063 1.1109v4.145h-1.142v-4.1006c0-.4655-.045-.8125-.134-1.041-.089-.2327-.247-.4168-.476-.5522-.224-.1397-.489-.2095-.793-.2095-.487 0-.908.1544-1.264.4634-.351.3089-.526.895-.526 1.7583v3.6816z"/><path d="m135.552 51v-9.3057h3.491c.711 0 1.28.0953 1.707.2857.432.1862.769.4761 1.01.8696.245.3893.368.7977.368 1.2251 0 .3978-.108.7723-.324 1.1235-.216.3513-.541.6348-.977.8506.562.1651.994.4465 1.295.8443.304.3978.457.8675.457 1.4091 0 .4359-.093.8422-.28 1.2188-.182.3724-.408.6602-.679.8633s-.611.3576-1.022.4634c-.406.1015-.905.1523-1.498.1523zm1.231-5.3955h2.012c.546 0 .938-.036 1.175-.1079.313-.0931.548-.2476.704-.4634.161-.2158.242-.4867.242-.8125 0-.3089-.075-.5797-.223-.8125-.148-.237-.359-.3978-.634-.4824-.275-.0889-.747-.1333-1.416-.1333h-1.86zm0 4.2974h2.317c.398 0 .677-.0149.838-.0445.284-.0508.52-.1354.711-.2539.19-.1185.347-.2899.47-.5141.122-.2286.184-.4909.184-.7872 0-.347-.089-.6474-.267-.9013-.178-.2582-.425-.438-.743-.5396-.313-.1058-.765-.1587-1.358-.1587h-2.152z"/><path d="m145.002 47.6294c0-1.2484.347-2.173 1.041-2.7739.58-.4994 1.287-.7491 2.12-.7491.927 0 1.685.3047 2.273.9141.588.6052.882 1.443.882 2.5137 0 .8675-.131 1.5509-.393 2.0503-.259.4951-.637.8802-1.137 1.1552-.495.2751-1.037.4126-1.625.4126-.943 0-1.707-.3025-2.291-.9077-.58-.6051-.87-1.4769-.87-2.6152zm1.174 0c0 .8633.189 1.5107.565 1.9424.377.4274.851.6411 1.422.6411.567 0 1.039-.2158 1.416-.6475.376-.4316.565-1.0897.565-1.9741 0-.8337-.191-1.4642-.572-1.8916-.376-.4316-.846-.6475-1.409-.6475-.571 0-1.045.2138-1.422.6412-.376.4274-.565 1.0727-.565 1.936z"/><path d="m153.507 48.9878 1.13-.1777c.063.4528.239.7998.526 1.041.292.2412.699.3618 1.219.3618.525 0 .914-.1058 1.168-.3174.254-.2158.381-.4676.381-.7554 0-.2581-.112-.4612-.336-.6093-.157-.1016-.546-.2307-1.168-.3872-.838-.2116-1.42-.3936-1.746-.5459-.322-.1566-.567-.3703-.736-.6412-.165-.275-.248-.5776-.248-.9077 0-.3004.068-.5776.203-.8315.14-.2582.328-.4719.565-.6411.178-.1312.419-.2412.724-.3301.309-.0931.639-.1397.99-.1397.529 0 .992.0762 1.39.2286.402.1523.698.3597.889.622.19.2582.322.6052.393 1.041l-1.117.1524c-.05-.347-.199-.6178-.444-.8125-.241-.1947-.584-.292-1.028-.292-.525 0-.9.0867-1.124.2603-.224.1735-.336.3766-.336.6093 0 .1481.046.2814.139.3999.093.1228.239.2243.438.3047.115.0423.451.1397 1.01.292.808.2158 1.371.3936 1.688.5332.322.1354.573.3343.755.5967s.273.5882.273.9775c0 .3809-.112.7406-.336 1.0791-.22.3343-.54.5946-.959.7808-.418.182-.892.2729-1.421.2729-.876 0-1.545-.1819-2.006-.5459-.457-.3639-.749-.9034-.876-1.6186z"/><path d="m164.258 49.978.165 1.0093c-.321.0677-.609.1016-.863.1016-.415 0-.736-.0656-.965-.1968-.228-.1312-.389-.3026-.482-.5142-.093-.2158-.14-.6665-.14-1.352v-3.8784h-.838v-.8887h.838v-1.6694l1.136-.6856v2.355h1.149v.8887h-1.149v3.9419c0 .3258.02.5353.058.6284.042.0931.108.1671.196.2221.093.0551.225.0826.394.0826.127 0 .294-.0149.501-.0445z"/><path d="m166.257 47.6294c0-1.2484.347-2.173 1.041-2.7739.579-.4994 1.286-.7491 2.12-.7491.927 0 1.684.3047 2.272.9141.588.6052.883 1.443.883 2.5137 0 .8675-.132 1.5509-.394 2.0503-.258.4951-.637.8802-1.136 1.1552-.495.2751-1.037.4126-1.625.4126-.944 0-1.708-.3025-2.292-.9077-.579-.6051-.869-1.4769-.869-2.6152zm1.174 0c0 .8633.188 1.5107.565 1.9424.377.4274.85.6411 1.422.6411.567 0 1.039-.2158 1.415-.6475.377-.4316.565-1.0897.565-1.9741 0-.8337-.19-1.4642-.571-1.8916-.377-.4316-.846-.6475-1.409-.6475-.572 0-1.045.2138-1.422.6412s-.565 1.0727-.565 1.936z"/><path d="m175.218 51v-6.7412h1.029v.9585c.495-.7406 1.21-1.1109 2.145-1.1109.406 0 .779.0741 1.117.2222.343.1439.599.3343.768.5713.17.237.288.5184.356.8442.042.2116.063.5819.063 1.1109v4.145h-1.142v-4.1006c0-.4655-.045-.8125-.134-1.041-.088-.2327-.247-.4168-.476-.5522-.224-.1397-.488-.2095-.793-.2095-.487 0-.908.1544-1.263.4634-.352.3089-.527.895-.527 1.7583v3.6816z"/></g><path d="m10.2969 23.5156c-1.32294 0-2.59378-.2604-3.81252-.7812-1.20834-.5209-2.28126-1.2709-3.21876-2.25-.92708-.9792-1.66666-2.1719-2.21874-3.5782-.552088-1.4166-.82813-3.0104-.82813-4.7812s.270833-3.375.8125-4.8125c.54167-1.44792 1.29167-2.69271 2.25-3.73438.94792-1.03124 2.06771-1.82812 3.35937-2.39062 1.29167-.5625 2.67188-.84375 4.14058-.84375 1.0938 0 2.0834.135417 2.9688.40625.8854.27083 1.7292.65104 2.5312 1.14062l.6407-1.062495h1.25l.1406 7.906255h-1.2813c-.1666-.77084-.4166-1.60417-.75-2.5-.3333-.90626-.7239-1.67188-1.1718-2.29688-.5-.70833-1.0938-1.26042-1.7813-1.65625-.6875-.40625-1.4739-.60937-2.3593-.60937-1.01047 0-1.95318.22395-2.82818.67187-.86458.44792-1.61458 1.10937-2.25 1.98437-.60416.84376-1.07812 1.91667-1.42187 3.21876-.34375 1.30208-.51563 2.75522-.51563 4.35932 0 1.4167.17709 2.7188.53126 3.9063.36458 1.1771.8802 2.2135 1.54687 3.1094.66667.8854 1.45313 1.5781 2.35937 2.0781.91667.5 1.93748.75 3.06248.75.8438 0 1.6198-.1302 2.3281-.3906.7084-.2709 1.323-.625 1.8438-1.0625.5208-.4584.9792-.9792 1.375-1.5625.3958-.5834.7188-1.2188.9688-1.9063l1.1718.5625c-.8958 2.1979-2.0833 3.7709-3.5625 4.7188-1.4791.9375-3.2396 1.4062-5.2812 1.4062z" fill="#f1cdb3"/><path d="m37.6231 15.1406c0 1.0834-.1719 2.1511-.5156 3.2032-.3438 1.0416-.8333 1.927-1.4688 2.6562-.7187.8333-1.552 1.4531-2.5 1.8594-.9479.4062-2.0104.6094-3.1874.6094-.9792 0-1.9115-.1823-2.7969-.5469-.8854-.375-1.6719-.9167-2.3594-1.625-.6771-.6979-1.2187-1.5469-1.625-2.5469-.3958-1.0104-.5937-2.1406-.5937-3.3906 0-2.4063.6979-4.375 2.0937-5.90628 1.4063-1.53124 3.2448-2.29687 5.5156-2.29687 2.1563 0 3.9323.72917 5.3281 2.1875 1.4063 1.44795 2.1094 3.38025 2.1094 5.79685zm-3.2344.0313c0-.7813-.0781-1.6042-.2343-2.4688-.1563-.875-.3907-1.6146-.7032-2.2187-.3333-.64586-.7708-1.16148-1.3125-1.5469-.5416-.39583-1.2031-.59375-1.9843-.59375-.8021 0-1.4896.19792-2.0625.59375-.5625.39583-1.0209.9375-1.375 1.625-.3334.6354-.5677 1.3594-.7031 2.1719-.1355.8125-.2032 1.5989-.2032 2.3594 0 1 .0782 1.927.2344 2.7812.1667.8438.4271 1.599.7813 2.2656.3541.6667.7968 1.1927 1.3281 1.5782.5416.375 1.2083.5624 2 .5624 1.3021 0 2.3333-.6302 3.0937-1.8906s1.1406-3 1.1406-5.2187z" fill="#f1cdb3"/><path d="m53.9806 23h-12.4687v-.8281l8.7187-13.31252h-2.1562c-.9063 0-1.6146.01562-2.125.04687s-.9792.13542-1.4063.3125c-.2916.11458-.5677.44271-.8281.98435-.25.5417-.4687 1.25-.6562 2.125h-.9532v-4.73435h11.7813v.64063l-8.8594 13.50002c.375.0104.7865.0208 1.2344.0312h1.4531c.4167 0 .849-.0052 1.2969-.0156.4583-.0104 1.0416-.0365 1.75-.0781.4166-.0209.7291-.1615.9375-.4219.2187-.2604.3854-.5573.5-.8906.1146-.3021.25-.7188.4062-1.25.1667-.5313.3125-1.0469.4375-1.5469h.9375z" fill="#f1cdb3"/><path d="m56.7444 28.0312c0-.5208.1406-.9479.4218-1.2812.2917-.3229.6511-.4844 1.0782-.4844.3333 0 .6198.0625.8593.1875.2396.125.4532.2865.6407.4844.1562.1563.3229.3698.5.6406.1771.2709.3177.4948.4218.6719.5209-.2812 1.1407-1.0156 1.8594-2.2031.7292-1.1875 1.2552-2.2292 1.5781-3.125-.9895-2.4688-1.8854-4.6771-2.6875-6.625-.802-1.9479-1.6406-3.9636-2.5156-6.0469-.1979-.47917-.5312-.84896-1-1.10938-.4687-.27083-.9375-.4427-1.4062-.51562v-1.03125h7.0312v1.09375c-.3125.01042-.6875.07812-1.125.20312-.4375.11459-.6562.25-.6562.40626 0 .0625.0208.16666.0625.3125.0521.14583.1093.29687.1718.45312.3959 1.0313 1 2.5208 1.8125 4.4687.8125 1.9376 1.4428 3.4896 1.8907 4.6563.4687-1.1146.9531-2.2656 1.4531-3.4531.5104-1.1979 1.0781-2.6094 1.7031-4.2344.0729-.1979.1771-.4688.3125-.8125.1354-.3542.2031-.6563.2031-.90625 0-.27083-.2395-.52083-.7187-.75-.4688-.23958-.9167-.38542-1.3438-.4375v-1h5.7188v.96875c-.3125.05208-.724.23438-1.2344.54688-.5104.30208-.8906.73437-1.1406 1.29682-1.2396 2.875-2.3438 5.4948-3.3125 7.8594-.9583 2.3646-1.6875 4.1042-2.1875 5.2188-.6563 1.4583-1.2448 2.5937-1.7656 3.4062-.5104.8229-1.0104 1.4688-1.5 1.9375-.4792.4375-.9167.7292-1.3125.875-.3854.1563-.7865.2344-1.2032.2344-.8125 0-1.4531-.1927-1.9218-.5781-.4584-.3854-.6875-.8282-.6875-1.3282z" fill="#f1cdb3"/><path d="m108.584 23h-9.2028v-1.1094c.25-.0208.6094-.0521 1.0778-.0937.48-.0417.808-.1042.985-.1875.312-.125.541-.3125.687-.5625.146-.2604.219-.5938.219-1v-7.8907h-10.4219v7.7188c0 .3646.0573.6719.1719.9219.125.25.3646.4687.7187.6562.1771.0938.4896.1875.9375.2813.4584.0937.8178.1458 1.0782.1562v1.1094h-9.2032v-1.1094c.25-.0208.6094-.0521 1.0782-.0937.4791-.0417.8073-.1042.9843-.1875.3125-.125.5417-.3125.6875-.5625.1459-.2604.2188-.5938.2188-1v-16.00002c0-.33334-.0677-.63542-.2031-.90626-.1354-.28124-.3698-.5-.7032-.65624-.2812-.13542-.625-.25521-1.0312-.35938-.3958-.10417-.7396-.16667-1.0313-.1875v-1.109375h9.2032v1.109375c-.2917.01042-.6511.05729-1.0782.14062-.4166.08334-.7291.16146-.9375.23438-.3541.125-.5937.33333-.7187.625-.1146.29167-.1719.60938-.1719.95312v6.87498h10.4219v-6.71872c0-.33334-.068-.63542-.203-.90626-.136-.28124-.37-.5-.703-.65624-.282-.13542-.625-.25521-1.032-.35938-.395-.10417-.7391-.16667-1.0308-.1875v-1.109375h9.2028v1.109375c-.291.01042-.651.05729-1.078.14062-.416.08334-.729.16146-.937.23438-.354.125-.594.33333-.719.625-.115.29167-.172.60938-.172.95312v15.98438c0 .3646.057.6719.172.9219.125.25.365.4687.719.6562.177.0938.489.1875.937.2813.459.0937.818.1458 1.078.1562z" fill="#f1cdb3"/><path d="m128.254 15.1406c0 1.0834-.172 2.1511-.515 3.2032-.344 1.0416-.834 1.927-1.469 2.6562-.719.8333-1.552 1.4531-2.5 1.8594-.948.4062-2.01.6094-3.188.6094-.979 0-1.911-.1823-2.796-.5469-.886-.375-1.672-.9167-2.36-1.625-.677-.6979-1.219-1.5469-1.625-2.5469-.396-1.0104-.594-2.1406-.594-3.3906 0-2.4063.698-4.375 2.094-5.90628 1.406-1.53124 3.245-2.29687 5.516-2.29687 2.156 0 3.932.72917 5.328 2.1875 1.406 1.44795 2.109 3.38025 2.109 5.79685zm-3.234.0313c0-.7813-.078-1.6042-.234-2.4688-.157-.875-.391-1.6146-.704-2.2187-.333-.64586-.77-1.16148-1.312-1.5469-.542-.39583-1.203-.59375-1.984-.59375-.802 0-1.49.19792-2.063.59375-.562.39583-1.021.9375-1.375 1.625-.333.6354-.568 1.3594-.703 2.1719s-.203 1.5989-.203 2.3594c0 1 .078 1.927.234 2.7812.167.8438.427 1.599.781 2.2656.355.6667.797 1.1927 1.329 1.5782.541.375 1.208.5624 2 .5624 1.302 0 2.333-.6302 3.093-1.8906.761-1.2604 1.141-3 1.141-5.2187z" fill="#f1cdb3"/><path d="m148.924 22.7188-5.015.3437-.235-.2187v-1.9532h-.093c-.25.2604-.532.5417-.844.8438-.313.2916-.672.5573-1.078.7968-.469.2813-.922.4948-1.36.6407-.437.1458-1.057.2187-1.859.2187-1.365 0-2.406-.4427-3.125-1.3281-.708-.8958-1.062-2.1927-1.062-3.8906v-7.375c0-.375-.073-.6875-.219-.93752-.136-.26042-.339-.48438-.61-.67188-.187-.125-.421-.21354-.703-.26562-.281-.0625-.578-.10417-.89-.125v-1.01563l5.14-.375.235.21875v10.7031c0 1.1146.25 1.9531.75 2.5157.5.5624 1.099.8437 1.797.8437.572 0 1.083-.0885 1.531-.2656s.823-.3854 1.125-.625c.281-.2188.526-.4479.734-.6875.219-.25.386-.4792.5-.6875v-8.7344c0-.3437-.073-.6458-.219-.90625-.145-.27083-.349-.5-.609-.6875-.187-.125-.469-.19792-.844-.21875-.364-.03125-.776-.05729-1.234-.07812v-1.01563l5.594-.375.234.21875v12.2344c0 .3541.073.6562.219.9062s.349.4636.609.6406c.188.1146.412.1928.672.2344.26.0313.547.0521.859.0625z" fill="#f1cdb3"/><path d="m162.907 15.4531c.427.375.755.8073.984 1.2969s.344 1.0885.344 1.7969c0 1.4271-.536 2.5937-1.609 3.5-1.063.9062-2.443 1.3593-4.141 1.3593-.896 0-1.724-.1614-2.484-.4843-.75-.3229-1.287-.6198-1.61-.8907l-.312 1.0157h-1.172l-.156-5.3594h1.078c.083.4063.26.8802.531 1.4219.271.5416.599 1.0312.984 1.4687.407.4584.891.8438 1.454 1.1563.572.3125 1.213.4687 1.921.4687 1 0 1.771-.2239 2.313-.6719.542-.4583.812-1.1093.812-1.9531 0-.4375-.088-.8125-.265-1.125-.167-.3229-.417-.6041-.75-.8437-.344-.2396-.766-.4532-1.266-.6406-.5-.198-1.057-.3907-1.672-.5782-.489-.1458-1.036-.3437-1.64-.5937-.594-.2604-1.105-.5625-1.532-.9063-.458-.3646-.833-.8125-1.125-1.3437-.291-.5313-.437-1.1563-.437-1.875 0-1.2604.469-2.32815 1.406-3.20315.938-.875 2.193-1.3125 3.766-1.3125.604 0 1.219.07813 1.844.23437.635.15626 1.151.34376 1.546.5625l.36-.8125h1.125l.234 4.95318h-1.078c-.219-1.1042-.693-2-1.422-2.68755-.719-.69792-1.599-1.04687-2.64-1.04687-.855 0-1.527.21354-2.016.64062-.49.42708-.734.94271-.734 1.5469 0 .4687.078.8593.234 1.1719.167.3124.411.5781.734.7968.313.2084.703.4063 1.172.5938.479.1771 1.068.3802 1.766.6094.687.2187 1.333.4739 1.937.7656.615.2916 1.12.6146 1.516.9687z" fill="#f1cdb3"/><path d="m182.186 19.375c-.646 1.2292-1.51 2.2083-2.594 2.9375-1.083.7292-2.328 1.0937-3.734 1.0937-1.239 0-2.328-.2187-3.266-.6562-.927-.4375-1.692-1.0312-2.296-1.7812-.605-.75-1.058-1.625-1.36-2.625-.291-1-.437-2.0573-.437-3.1719 0-1 .156-1.9792.468-2.9375.323-.9688.792-1.8386 1.407-2.6094.593-.73958 1.328-1.33333 2.203-1.78125.885-.45833 1.875-.6875 2.969-.6875 1.125 0 2.088.17708 2.89.53125s1.453.83854 1.953 1.45312c.48.58334.834 1.27088 1.063 2.06248.239.7917.359 1.6511.359 2.5781v1.0313h-10.203c0 1.0104.094 1.9271.281 2.75.198.8229.506 1.5469.922 2.1719.406.6041.938 1.0833 1.594 1.4375.656.3437 1.437.5156 2.344.5156.927 0 1.724-.2135 2.39-.6406.677-.4375 1.328-1.2188 1.953-2.3438zm-3.453-5.875c0-.5833-.052-1.2083-.156-1.875-.094-.6667-.25-1.224-.469-1.67188-.239-.47916-.568-.86979-.984-1.17187-.417-.30208-.953-.45313-1.61-.45313-1.093 0-2.005.45834-2.734 1.375-.719.90628-1.109 2.17188-1.172 3.79688z" fill="#f1cdb3"/></svg>