<svg fill="none" height="60" viewBox="0 0 60 60" width="60" xmlns="http://www.w3.org/2000/svg"><g fill="#f1cdb3"><path d="m54.3108 35.3986c-3.2749-1.1146-7.606-1.7284-12.195-1.7284-.2869 0-.5727.0023-.8572.0071-4.2692.0715-8.2676.6763-11.3379 1.7213-.4927.1667-.9783.3537-1.4556.5603v-18.7264c0-7.84778-6.3846-14.2325-14.2326-14.2325-7.84789 0-14.2325 6.38472-14.2325 14.2325v25.6936c0 7.8478 6.38461 14.2326 14.2325 14.2326 2.4895 0 4.9397-.6525 7.0863-1.887 1.3533-.7783 2.5693-1.7781 3.598-2.946.7477 1.0504 2.2283 2.1599 5.004 3.1046 3.2749 1.1145 7.6058 1.7284 12.1949 1.7284 4.589 0 8.92-.6139 12.195-1.7284 4.7022-1.6003 5.6893-3.6737 5.6893-5.1313v-9.7691c0-1.4576-.9871-3.531-5.6892-5.1313zm-27.7354 5.1313c.0005-.0436.0044-.0871.0117-.1301l.002-.0116c.0398-.2118.1672-.4577.4016-.7243l.0045-.005c.0355-.0402.0743-.0809.1147-.1221.0271-.0272.0542-.0545.0831-.0816l.0341-.0319c.1964-.1811.433-.363.7061-.5408.0047-.0031.0086-.0068.0132-.0099.6407-.4161 1.5316-.8476 2.7295-1.2553 3.0382-1.0339 7.101-1.6035 11.4399-1.6035 3.9533.0001 7.6746.4742 10.6032 1.3403l-25.0793 4.6215c-.7529-.5543-1.063-1.0679-1.0643-1.4433zm-.4541-3.2396c-.9034.6922-1.4069 1.3954-1.6622 2.0479-.086.2194-.1483.4473-.1858.6799-.0172.1058-.029.2124-.0354.3194l-.002.0302c-.0028.0547-.0046.1089-.0046.1621v8.8311c-2.2024 3.4215-5.9163 5.454-9.9988 5.454-6.55543 0-11.88875-5.3333-11.88875-11.8888v-11.6749h2.34375v6.3281c0 .6473.52477 1.1719 1.17188 1.1719.6471 0 1.17187-.5246 1.17187-1.1719v-6.3281h19.09005zm0-8.3828h-19.09005v-11.675c0-3.9707 3.23035-7.2013 7.20125-7.2013s7.2013 3.2306 7.2013 7.2013c0 .6473.5248 1.1719 1.1719 1.1719.6472 0 1.1719-.5246 1.1719-1.1719 0-5.2631-4.2819-9.545-9.5451-9.545-5.26309 0-9.545 4.2819-9.545 9.545v11.675h-2.34375v-11.675c0-6.5554 5.33332-11.88875 11.88875-11.88875 6.5555 0 11.8888 5.33335 11.8888 11.88875zm31.5349 21.3915c0 .6997-1.0739 1.8824-4.1006 2.9126-3.0382 1.0339-7.101 1.6034-11.4398 1.6034-4.3389 0-8.4017-.5694-11.4399-1.6034-3.0267-1.0301-4.1006-2.2128-4.1006-2.9126v-.6004l.0001-.0016v-5.6038c.8208.5461 1.909 1.0792 3.3454 1.568 3.2749 1.1145 7.6059 1.7284 12.195 1.7284 4.589 0 8.9201-.6139 12.195-1.7284 1.4363-.4889 2.5247-1.0219 3.3454-1.5681zm-4.1006-6.8567c-3.0382 1.034-7.1008 1.6035-11.4398 1.6035-4.0102 0-7.7824-.4874-10.7298-1.3773l25.139-4.6325c.8028.5738 1.1312 1.1075 1.1312 1.4939 0 .6997-1.0739 1.8824-4.1006 2.9124z"/><path d="m6.68777 41.402c-.05391-.0539-.11356-.1031-.17801-.1453-.06384-.0426-.13175-.0787-.20274-.1078-.07031-.0293-.14402-.0516-.21902-.0668-.15082-.0305-.30621-.0305-.45703 0-.075.0152-.14883.0375-.22031.0668-.07043.0293-.13828.0656-.20156.1078-.06458.0422-.12434.0914-.17825.1453-.0539.0539-.10312.1137-.14531.1782-.04336.0632-.07852.1312-.10781.2027-.0293.0703-.05274.1441-.06668.2191-.01535.075-.02344.1524-.02344.2285 0 .0774.00809.1536.02344.2297.01394.075.03738.1489.06668.2192.02929.0703.06445.1383.10781.2027.04219.0633.09141.1231.14531.1781.16448.163.37312.2743.60012.32.075.0152.15234.0222.22852.0222.15362.0004.30577-.0299.44753-.089.07099-.0292.1389-.0653.20274-.1079.06445-.0433.12422-.0914.17812-.1453.05403-.055.10325-.1148.14532-.1781.04218-.0644.07851-.1324.10781-.2027s.05273-.1442.06797-.2192c.01523-.0761.02226-.1523.02226-.2297 0-.3082-.12539-.6105-.34347-.8285z"/></g></svg>