<svg fill="none" height="60" viewBox="0 0 61 60" width="61" xmlns="http://www.w3.org/2000/svg"><g fill="#f1cdb3"><path d="m56.0044 12.7115h-7.023v-.202c0-3.63285-2.9554-6.58832-6.5882-6.58832-3.6329 0-6.5883 2.95547-6.5883 6.58832v.202h-8.2478c-2.7157 0-4.925 2.2094-4.925 4.925v5.5644h-7.3863c-1.762 0-3.3282 1.0553-3.99 2.6884-.0096.024-.0185.0482-.0267.0727l-4.26102 12.9069c-.03868.023-.08801.0502-.14942.0809-.24363.1216-.69937.307-1.48359.4986-1.24445.3015-2.35117 1.0132-3.14184 2.0204-.79068 1.0071-1.219266 2.2512-1.216717 3.5316v6.0983c0 2.0419 1.661137 3.7031 3.703007 3.7031l5.22422.0002c.55156 2.9542 3.14766 5.1979 6.25946 5.1979 3.1117 0 5.7077-2.2438 6.2594-5.1978l18.4246.0003c.5517 2.954 3.1477 5.1975 6.2594 5.1975 3.1115 0 5.7075-2.2434 6.2593-5.1973l3.3177.0001c2.5396 0 4.2458-1.7064 4.2458-4.2459v-30.4768c0-6.6505-3.4443-7.3685-4.925-7.3685zm-17.8558-.202c0-2.3405 1.9041-4.24457 4.2446-4.24457 2.3404 0 4.2445 1.90407 4.2445 4.24457v.202h-8.4891zm-24.7073 14.2284c.1497-.3546.4009-.657.7219-.8693s.6977-.325 1.0825-.3239h7.3862v13.2819h-13.18168zm2.7219 30.9183c-2.2197 0-4.0255-1.8058-4.0255-4.0255 0-.0274.0015-.0545.0021-.0819.0008-.0419.001-.0838.0032-.1254.0003-.0066.0011-.013.0015-.0196.1181-2.1144 1.8755-3.7986 4.0187-3.7986 1.9394 0 3.563 1.3789 3.9418 3.2077l.0017.0071c.0127.062.0238.1245.0336.1876l.0019.0104c.007.0458.0122.0921.0176.1384.0024.0211.0058.0419.0079.063.0037.036.0057.0727.0083.1091.0024.0317.0057.0631.0073.095.0017.0328.0017.0661.0025.0991.0009.036.0027.0718.0027.108.0002 2.2198-1.8057 4.0256-4.0253 4.0256zm30.9434 0c-2.2197 0-4.0256-1.8058-4.0256-4.0255 0-.0524.002-.1044.004-.1564.0006-.0167.0005-.0338.0013-.0505.002-.0386.0058-.0767.0088-.115.0024-.0297.0038-.0597.0068-.0892.0013-.0126.0034-.0249.0047-.0373.0136-.1223.032-.2433.0564-.362.0007-.0035.0016-.0069.0024-.0104.3801-1.8273 2.0026-3.2046 3.9412-3.2046.5548 0 1.0839.1128 1.5653.3169 1.4444.6119 2.46 2.0438 2.46 3.7086 0 2.2196-1.8057 4.0254-4.0253 4.0254zm9.577-5.1974-3.3158-.0001c-.0039-.0208-.0089-.0412-.013-.0619-.0276-.1377-.0594-.2746-.0953-.4104-.016-.0594-.0328-.1185-.0505-.1774-.011-.0366-.0218-.0732-.0333-.1096-.0197-.0612-.0404-.1222-.062-.1828-.0115-.0324-.0224-.0653-.0344-.0975-.0262-.0699-.0536-.1392-.0823-.2081-.009-.0218-.0172-.0441-.0265-.0658-.0387-.091-.0795-.1811-.1223-.2702-.0054-.0111-.0113-.0218-.0167-.0328-.0374-.0766-.0763-.1525-.1167-.2276-.0149-.0275-.0307-.0544-.0459-.0817-.0322-.058-.0653-.1154-.0993-.1723-.0185-.0309-.0377-.0611-.0568-.0917-.0523-.0843-.1067-.1673-.1633-.2488-.0556-.0806-.113-.1599-.1722-.238-.037-.0484-.0747-.0963-.113-.1436-.0229-.0283-.0454-.0566-.0687-.0845-.0417-.0497-.0842-.0987-.1274-.1471-.0213-.0239-.042-.0484-.0637-.072-.0538-.0586-.1087-.1161-.1647-.1726-.012-.0122-.0235-.0249-.0357-.037-.0691-.069-.1397-.1363-.2119-.202-.0153-.0141-.0314-.0273-.047-.0413-.0565-.0505-.1136-.1005-.172-.1491-.0256-.0213-.0519-.0417-.0778-.0625-.0494-.04-.0994-.0793-.1499-.1179-.0298-.0225-.0599-.0444-.09-.0664-.1274-.0934-.2583-.1818-.3925-.2651-.0328-.0206-.0657-.0408-.099-.0608-.0519-.031-.1044-.0609-.1572-.0904-.0325-.0182-.0649-.0367-.0977-.0543-.0574-.0308-.1156-.0602-.1741-.0893-.0291-.0145-.0578-.0296-.0871-.0436-.0766-.0365-.1539-.0715-.2319-.105-.0119-.0051-.0237-.0109-.0357-.016-.0907-.0383-.1823-.0745-.2747-.1085-.0264-.0098-.0532-.0183-.0798-.0277-.0664-.0234-.1328-.0465-.2001-.0679-.0352-.0111-.0709-.0212-.1064-.0317-.0596-.0177-.1194-.0352-.1797-.0512-.0387-.0103-.0776-.0197-.1166-.0293-.0985-.0243-.1976-.0461-.2971-.0655-.059-.0114-.1181-.022-.1774-.0318-.0407-.0067-.0814-.0135-.1223-.0193-.0616-.0088-.1234-.0166-.1852-.0236-.0393-.0045-.0784-.0095-.1179-.0132-.0686-.0063-.1372-.0116-.2059-.0157-.0337-.0021-.0669-.0052-.1007-.0068-.1033-.0051-.2067-.0077-.3101-.0079-.1039 0-.2073.003-.31.0079-.0338.0016-.0672.0047-.1008.0068-.0688.0044-.1375.0091-.2057.0157-.0396.0039-.0787.0088-.1181.0133-.0619.0072-.1236.0147-.1849.0236-.041.006-.0819.0127-.1227.0195-.1001.0166-.1998.0355-.2991.0566-.0583.0126-.1165.0261-.1745.0404-.0394.0096-.0786.0192-.1176.0295-.0598.0158-.119.0331-.178.0506-.0361.0108-.0725.021-.1083.0324-.0657.021-.1311.0432-.1961.0664-.0279.0099-.0561.0189-.0839.0292-.0921.034-.1833.0699-.2733.1079-.0149.0064-.0294.0134-.0443.0199-.0751.0324-.1496.0658-.2232.101-.0311.0148-.0614.0308-.0922.0461-.0565.0283-.113.0566-.1686.0864-.0343.0184-.0682.0377-.1021.0568-.0512.0286-.102.0578-.1524.0877-.1185.0712-.2348.1459-.3487.2241-.0474.0327-.0943.0661-.1408.1002-.032.0233-.0641.0465-.0956.0704-.0482.0365-.0954.0742-.1425.112-.0284.0229-.0571.0451-.0851.0684-.0541.0452-.1071.0917-.1597.1384-.0196.0174-.0396.0342-.0589.0517-.0712.0648-.1408.1312-.2089.1991-.0172.0171-.0335.0352-.0506.0525-.0505.0516-.1007.1035-.1495.1568-.0244.0267-.048.0542-.0719.0812-.0402.0454-.0801.0909-.119.1374-.0253.0303-.05.0612-.0747.092-.0361.0447-.0717.0897-.1066.1354-.0837.1102-.1639.223-.2406.3381-.032.0481-.0629.0968-.0935.1458-.021.0335-.0422.0669-.0625.1008-.0316.0526-.0619.106-.0919.1597-.0175.0313-.0357.0622-.0528.094-.0361.0668-.0704.1348-.1041.203-.0095.0192-.0197.0378-.0289.0572-.0422.0876-.0823.1762-.1204.2656-.0116.0273-.022.0552-.0332.0828-.0259.0631-.0515.1265-.0754.1907-.0134.0359-.0254.0722-.0382.1082-.0202.057-.0396.1142-.0582.1717-.0126.0391-.0242.0787-.036.1182-.0288.0964-.0553.1934-.0794.291-.0139.0564-.0269.1131-.0393.1702-.0091.0413-.018.0827-.0262.1243-.0038.0197-.0086.039-.0123.0587l-18.4211-.0003c-.0039-.0203-.0087-.0404-.0127-.0606-.0079-.0401-.0165-.0798-.0251-.1196-.034-.1568-.0741-.3124-.1201-.4661-.0114-.0382-.0227-.0764-.0348-.1144-.019-.0589-.0388-.1174-.0595-.1757-.0123-.0349-.0242-.0701-.0371-.1047-.0244-.0652-.05-.1299-.0767-.1942-.0108-.0265-.0209-.0535-.0321-.0797-.0382-.0897-.0784-.1785-.1207-.2664-.0086-.0177-.018-.0348-.0266-.0524-.0343-.0699-.0698-.1392-.1067-.2078-.0166-.031-.0344-.0613-.0517-.0919-.0304-.0543-.061-.1084-.093-.1616-.0202-.0337-.0411-.0666-.0619-.0998-.0307-.0493-.062-.0982-.0941-.1467-.0767-.115-.1569-.2276-.2404-.3377-.0349-.0457-.0705-.0907-.1066-.1354-.0248-.0308-.0495-.0618-.0749-.0922-.0389-.0461-.0784-.0918-.1185-.1369-.0242-.0271-.0479-.0548-.0724-.0816-.0482-.0528-.0979-.1042-.148-.1553-.0175-.0179-.0343-.0365-.0521-.054-.068-.0679-.1375-.1341-.2085-.1988-.0197-.018-.0403-.035-.0602-.0528-.0521-.0467-.1049-.0924-.1585-.1373-.0283-.0235-.0574-.0461-.0861-.0692-.0466-.0375-.0935-.0749-.1413-.1111-.0318-.0242-.0641-.0475-.0963-.071-.0463-.0339-.093-.0671-.1401-.0998-.0806-.0553-.1625-.1089-.2455-.1606-.0344-.0216-.0691-.0429-.1039-.0638-.0501-.0298-.1006-.0588-.1514-.0872-.0343-.0192-.0684-.0386-.1031-.0571-.0553-.0295-.111-.0581-.1672-.0858-.0312-.0156-.062-.0318-.0935-.0469-.0727-.0346-.1461-.0678-.2201-.0997-.0158-.0069-.0313-.0144-.0472-.0212-.0901-.0381-.1811-.074-.2729-.1079-.0283-.0104-.057-.0195-.0855-.0296-.0644-.023-.1293-.045-.1945-.066-.0361-.0115-.0728-.0218-.1092-.0326-.0588-.0176-.1178-.0344-.1771-.0503-.0392-.0105-.0787-.0201-.1182-.0297-.1564-.0387-.3142-.0711-.4732-.097-.0408-.0067-.0816-.0135-.1227-.0195-.0616-.0087-.1233-.0166-.1851-.0235-.0392-.0046-.0784-.0095-.1179-.0134-.0685-.0063-.1371-.0115-.2058-.0157-.0337-.0021-.067-.0052-.1007-.0068-.1033-.0051-.2067-.0077-.3101-.0078-.1039 0-.2072.0029-.3101.0078-.0337.0016-.0671.0047-.1008.0068-.0687.0045-.1374.0091-.2056.0157-.0396.0039-.0789.0088-.1183.0134-.0616.0069-.1232.0148-.1846.0235-.0413.006-.0822.0128-.1231.0195-.1001.0164-.1998.0353-.2989.0566-.0582.0125-.1159.026-.1736.0402-.0397.0097-.0796.0194-.1189.0299-.0589.0158-.1175.0325-.1758.05-.0368.0109-.0738.0214-.1104.0329-.0645.0204-.1282.0427-.1918.0651-.0295.0103-.0591.0198-.0883.0305-.0916.0339-.1823.0695-.2719.1074-.0181.0077-.0358.0163-.0539.0241-.0716.0311-.1428.063-.2131.0966-.0328.0157-.065.0326-.0975.0489-.0548.0271-.1092.0549-.1632.0836-.0356.0191-.0706.0392-.1059.059-.0497.0279-.0993.056-.1481.0853-.0836.0501-.1661.1019-.2474.1556-.0352.0232-.0701.0467-.1048.0706-.0459.0316-.0911.0641-.1363.0969-.0334.0244-.067.0486-.0999.0737-.0461.035-.0913.071-.1364.1072-.0304.0244-.0611.0482-.0908.0731-.0508.0422-.1002.0858-.1496.1295-.0229.0203-.0464.04-.0691.0606-.0702.0641-.139.1297-.2064.1968-.0208.0208-.0408.0426-.0614.0637-.0467.048-.0933.096-.1385.1453-.0264.0287-.0517.0584-.0775.0876-.0382.0432-.0763.0865-.1132.1308-.0267.0318-.0527.0644-.0787.0969-.0347.0429-.0688.0863-.1023.1302-.0589.0774-.1161.1562-.1715.2362-.0243.035-.0483.0703-.0719.1057-.0308.0464-.0606.0934-.0903.1405-.022.0352-.0441.0701-.0655.1057-.0303.0505-.0593.1019-.0882.1532-.0188.0334-.0381.0664-.0564.1002-.0337.0632-.0664.1269-.0981.1912-.0114.023-.0236.0455-.0348.0687-.0417.0867-.0814.1745-.1193.2633-.0129.0303-.0243.0611-.0368.0916-.0246.0603-.0491.1207-.0718.1818-.0139.0374-.0266.0753-.0398.113-.0195.0554-.0387.1109-.0566.1669-.0129.0402-.0249.0807-.037.1213-.0162.0547-.0321.1095-.0469.1648-.02613.097-.04977.1946-.07095.2928-.00914.0422-.01828.0842-.0266.1268-.00375.0192-.00844.0382-.01207.0574h-5.22246c-.74953 0-1.35926-.6097-1.35926-1.3594v-6.0983c-.00157-.7553.2512-1.4891.71758-2.0833.46638-.5941 1.11921-1.0139 1.85328-1.1917.66785-.1633 1.24149-.3494 1.70989-.5549h42.56159c.6471 0 1.1718-.5247 1.1718-1.1719 0-.6471-.5247-1.1719-1.1718-1.1719h-25.1868v-21.1902c0-1.4232 1.1581-2.5813 2.5813-2.5813h28.4471c2.2461 0 2.5813 3.1482 2.5813 5.0248v30.4767c0 1.6551-1.1916 1.9021-1.9019 1.9021z"/><path d="m51.4371 24.8147c.0001-1.5384-1.0804-2.8284-2.5222-3.1532.0077-.0809.0138-.1623.0162-.2446.0268-.9536-.3294-1.8602-1.0029-2.5529-.685-.7044-1.6416-1.1083-2.6248-1.1083-1.188 0-2.2461.5781-2.9086 1.4682-.662-.8901-1.721-1.4682-2.9117-1.4682-.9745 0-1.9245.3987-2.6064 1.0941-.6772.6904-1.04 1.5985-1.0215 2.5566.0016.0859.0075.1709.0151.2554-1.4412.3252-2.5211 1.6148-2.5211 3.1529 0 1.3016.7737 2.4252 1.8849 2.9372-.7828.9687-1.2396 2.1945-1.2396 3.4904 0 3.0605 2.4898 5.5504 5.5503 5.5504 1.0081 0 1.9922-.2755 2.8484-.7876.8608.5151 1.8452.7873 2.8483.7876 3.0605 0 5.5504-2.4899 5.5504-5.5504 0-1.2961-.4568-2.5217-1.2396-3.4904 1.1113-.512 1.8848-1.6356 1.8848-2.9372zm-6.1337-4.7151c.354 0 .6982.1452.9444.3983.2284.2349.3492.5378.3405.8529-.0203.7184-.6027 1.3094-1.2985 1.3174-.1864-.0002-.3707-.0403-.5403-.1177-.021-.0097-.0416-.0201-.0627-.0296-.1068-.0563-.2045-.1282-.2902-.2132-.2448-.2429-.3789-.5693-.3775-.9192.0029-.7107.5791-1.2889 1.2843-1.2889zm-6.7536.3914c.1214-.1245.2665-.2233.4268-.2905.1603-.0673.3325-.1017.5063-.1011.7074 0 1.2835.5768 1.2843 1.2857.0009.1728-.0329.344-.0994.5034-.0665.1595-.1643.304-.2877.425-.0837.0824-.1788.1525-.2823.2082-.0383.0174-.0757.036-.1135.0541-.1528.0631-.3168.0946-.482.0925-.7054-.0116-1.2903-.5979-1.304-1.307-.0063-.3239.1186-.6328.3515-.8703zm-2.8568 4.3238c-.0001-.4903.3988-.8891.8888-.8891.4904 0 .8891.3988.8891.8891 0 .1007-.0175.197-.0485.2874-.0293.0589-.0575.1185-.0847.1786-.1568.2533-.4365.423-.7557.423-.4902 0-.889-.3988-.889-.889zm9.5485 9.6344c-.765-.0003-1.5047-.2742-2.0854-.7723-.2123-.1824-.483-.2826-.7629-.2823-.2799-.0002-.5506.1-.7629.2823-.5807.4981-1.3204.772-2.0855.7723-1.7681 0-3.2066-1.4385-3.2066-3.2066 0-1.3403.8451-2.5507 2.1027-3.0119.2063-.0756.3872-.2077.522-.3812s.2181-.3814.2404-.6c.0329-.3222.1143-.6377.2414-.9356.0418-.0793.0809-.1602.1161-.2432.3108-.5856.7963-1.0599 1.389-1.3571.051-.0224.1013-.046.1513-.0708.4074-.178.8474-.2697 1.2921-.2691.4581 0 .8943.0955 1.2896.268.0499.0248.1003.0482.1513.0706.5938.2971 1.0802.772 1.3915 1.3584.0352.083.0743.1639.116.2432.1272.2979.2086.6134.2414.9356.0223.2186.1056.4265.2405.6.1348.1735.3156.3056.5219.3812 1.2577.4613 2.1027 1.6716 2.1027 3.0119 0 1.768-1.4384 3.2066-3.2066 3.2066zm2.963-8.7454c-.3192 0-.5989-.1697-.7557-.423-.0272-.06-.0555-.1196-.0848-.1786-.0319-.0925-.0483-.1896-.0485-.2874 0-.4903.3988-.8891.8891-.8891.4902 0 .889.3988.889.8891-.0001.4901-.3989.889-.8891.889z"/><path d="m56.0193 39.7758c-.015-.0751-.0374-.1485-.0667-.2192-.0292-.0709-.0653-.1388-.1078-.2027-.0422-.0642-.0909-.1239-.1453-.1781-.0543-.0544-.1139-.1031-.1781-.1453-.1281-.0848-.2714-.1441-.4219-.1746-.1508-.0305-.3062-.0305-.457 0-.075.0153-.1489.0375-.2204.0668-.0703.0293-.1382.0657-.2015.1078-.0645.0422-.1242.0914-.1781.1453-.0541.0539-.1033.1137-.1465.1781-.0422.0633-.0787.1313-.1067.2027-.0293.0704-.0527.1442-.0668.2192-.0152.075-.0234.1523-.0234.2285 0 .076.0082.1535.0234.2297.0141.0738.0375.1476.0668.2191.0293.0703.0657.1383.1078.2016.0421.0644.0913.1242.1454.1781.0539.0539.1136.1031.1781.1465.0633.0422.1312.0773.2015.1066.0715.0293.1454.0528.2204.0668.0751.0153.1524.0235.2285.0235s.1536-.0082.2285-.0235c.075-.014.1488-.0375.2191-.0668.0715-.0293.1395-.0644.2028-.1066.0645-.0434.1243-.0926.1781-.1465.0539-.0539.1031-.1137.1453-.1781.0421-.0633.0785-.1313.1078-.2016.0293-.0715.0515-.1453.0667-.2191.0153-.0762.0234-.1537.0234-.2297 0-.0762-.0081-.1535-.0234-.2285z"/><path d="m42.3932 0c-.6471 0-1.1719.524648-1.1719 1.17188v1.96171c0 .64723.5248 1.17188 1.1719 1.17188.6472 0 1.1718-.52477 1.1718-1.17188v-1.96171c0-.647232-.5246-1.17188-1.1718-1.17188z"/><path d="m37.4562 4.55659-1.6357-1.28425c-.121-.09504-.2596-.16531-.4078-.20679s-.3031-.05337-.4559-.03498-.3005.0667-.4346.14216-.2521.17661-.3471.29765c-.3996.50906-.3109 1.2457.198 1.64531l1.6357 1.28426c.2061.16226.4607.2504.723.2502.1777.00024.3531-.03998.5129-.11762.1599-.07765.2999-.19067.4096-.33051.3997-.50918.311-1.24582-.1981-1.64543z"/><path d="m50.6113 3.47021c-.3996-.50906-1.1361-.59777-1.6454-.19805l-1.6357 1.28426c-.5091.39961-.5978 1.13625-.1981 1.64543.1096.13992.2497.25302.4095.33069.1599.07767.3353.11788.513.11756.2623.00018.517-.08796.723-.2502l1.6357-1.28426c.5091-.39961.5978-1.13625.198-1.64543z"/></g></svg>