<svg fill="none" height="23" viewBox="0 0 30 23" width="30" xmlns="http://www.w3.org/2000/svg"><path d="m25.9815 23h-21.96235c-2.2163 0-4.01915-1.7954-4.01915-3.9999v-15.0002c0-2.20569 1.80285-3.9999 4.01915-3.9999h21.96165c2.2152 0 4.0192 1.79421 4.0192 3.9999v15.0002c.0006 2.2051-1.8028 3.9999-4.0185 3.9999zm-21.96235-21.85715c-1.58352 0-2.87079 1.28111-2.87079 2.85705v15.0002c0 1.5754 1.28727 2.857 2.87079 2.857h21.96165c1.583 0 2.8708-1.2816 2.8708-2.857v-15.0002c0-1.57594-1.2878-2.85705-2.8708-2.85705zm16.68455 2.21708c1.4326 0 2.594 1.15539 2.594 2.5816s-1.1609 2.58223-2.594 2.58223-2.594-1.15593-2.594-2.58223 1.1615-2.5816 2.594-2.5816zm3.6167 0c1.4325 0 2.5947 1.15539 2.5947 2.5816s-1.1615 2.58223-2.5947 2.58223c-1.4331 0-2.594-1.15593-2.594-2.58223s1.1615-2.5816 2.594-2.5816zm-21.2343 12.97397h4.7822v1.7142h-4.7822zm6.34857 0h4.78283v1.7142h-4.78283zm6.34733 0h4.7839v1.7142h-4.7839zm6.3485 0h4.7839v1.7142h-4.7839zm-19.0444-12.97344h9.0402v1.71428h-9.0402zm0 3.40162h4.78336v1.71429h-4.78336z" fill="#292929"/></svg>