<svg fill="none" height="32" viewBox="0 0 40 32" width="40" xmlns="http://www.w3.org/2000/svg"><g fill="#f1cdb3"><path d="m39.9461 8.89543-2.4359-5.99053c-.0417-.10239-.1059-.19351-.1876-.26622-.0818-.0727-.1789-.12501-.2837-.15283l-2.9279-.77786c-8.5722-2.277366-19.6501-2.277271-28.22194 0l-2.92801.77786c-.10479.02782-.20187.08013-.28362.15283-.08175.07271-.14596.16383-.18759.26622l-2.4358636 5.99053c-.0671045.16495-.0718037.3496-.0131799.5179l.9742935 2.79557c.05657.1624.1683.2986.31477.3836s.3179.1131.48294.0792l9.2564-1.897c.1392-.0285.2667-.0997.3656-.2041.0989-.1045.1645-.2372.1882-.3806l.8015-4.86406c4.412-1.136 10.739-1.136 15.1508 0l.8016 4.86406c.0237.1435.0893.2763.1882.3807s.2264.1756.3656.2041l9.2563 1.897c.1651.0338.3364.0056.4829-.0794.1465-.0849.2582-.221.3149-.3834l.9744-2.79557c.0586-.16833.0539-.353-.0131-.518zm-37.81417 2.24577-.5001-1.43496 8.96547-1.92018-.2763 1.67689zm9.49027-7.0844c-.1287.03634-.2445.10956-.3339.21104-.0894.10149-.1487.22702-.1709.36185l-.2694 1.63484-8.98809 1.92507 1.79024-4.40253 2.59075-.6883c8.3582-2.220466 19.1598-2.220562 27.5184 0l2.5907.6883 1.7903 4.40253-8.9881-1.92507-.2694-1.63484c-.0222-.13482-.0815-.26033-.1709-.36181-.0895-.10148-.2053-.1747-.3339-.21108-4.7764-1.35065-11.9796-1.35065-16.7558 0zm26.2459 7.0844-8.1889-1.67825-.2764-1.67689 8.9654 1.92018z"/><path d="m33.2901 13.1186c-.0291-.1344-.0953-.2574-.1906-.3543-.0954-.097-.2159-.1638-.3473-.1926l-4.7746-1.0457-.6012-4.01205c-.0254-.16964-.1092-.32436-.2363-.43614s-.2891-.17323-.4566-.17323h-1.8695v-.9406c0-.39674-.3138-.71838-.7011-.71838-.3872 0-.701.32164-.701.71838v.9406h-6.8237v-.9406c0-.39674-.3138-.71838-.7011-.71838-.3872 0-.701.32164-.701.71838v.9406h-1.8695c-.1675 0-.3295.06145-.4566.17323s-.2109.2665-.2363.43614l-.6013 4.01205-4.77449 1.0457c-.13137.0288-.25191.0956-.34728.1926-.09536.0969-.16155.2199-.19067.3543l-3.242 14.9692c-.01104.0511-.01662.1033-.01664.1556v3.0382c0 .1905.07387.3733.20534.508.13148.1347.30979.2104.49573.2104h31.69531c.1859 0 .3643-.0757.4957-.2104.1315-.1347.2054-.3175.2054-.508v-3.0382c0-.0523-.0056-.1045-.0167-.1556zm-25.30879.7616 4.80719-1.0529c.1391-.0305.2659-.1035.3635-.2095s.1614-.2399.183-.384l.5833-3.89246h12.1636l.5832 3.89246c.0216.1441.0854.278.183.384s.2244.179.3634.2095l4.8074 1.0529 2.9552 13.6449h-29.948zm3.81529 15.0816-.9031 1.6014h-1.06568l.90308-1.6014zm1.6194 0h15.2561l-.9031 1.6014h-15.256zm-8.56255 0h4.25797l-.90306 1.6014h-3.35491zm24.53505 1.6014.9031-1.6014h4.855v1.6014z"/><path d="m20 26.1606c4.1492 0 7.5248-3.459 7.5248-7.7106 0-4.2517-3.3756-7.7107-7.5248-7.7107-4.1491 0-7.5247 3.459-7.5247 7.7107 0 4.2516 3.3756 7.7106 7.5247 7.7106zm0-13.9845c3.3761 0 6.1227 2.8144 6.1227 6.2739 0 3.4594-2.7466 6.2738-6.1227 6.2738-3.376 0-6.1226-2.8144-6.1226-6.2738 0-3.4595 2.7466-6.2739 6.1226-6.2739z"/><path d="m20 21.1847c1.4717 0 2.6691-1.2269 2.6691-2.735s-1.1974-2.735-2.6691-2.735-2.6691 1.2269-2.6691 2.735 1.1974 2.735 2.6691 2.735zm0-4.0333c.6987 0 1.267.5824 1.267 1.2983s-.5683 1.2982-1.267 1.2982c-.6986 0-1.267-.5823-1.267-1.2982 0-.7158.5684-1.2983 1.267-1.2983z"/></g></svg>