<svg fill="none" height="32" viewBox="0 0 22 32" width="22" xmlns="http://www.w3.org/2000/svg"><g fill="#f1cdb3"><path d="m11 0c-6.06525 0-10.99996948 4.78519-10.99996948 10.6667 0 1.7656.45523148 3.5162 1.32063948 5.069l9.07783 15.9205c.1208.2123.3511.3438.6015.3438s.4807-.1315.6016-.3438l9.0811-15.9258c.8621-1.5475 1.3173-3.2981 1.3173-5.0638 0-5.88141-4.9347-10.6666-11-10.6666zm8.4762 15.0905-8.4762 14.8652-8.47283-14.8593c-.75397-1.3529-1.1521-2.8848-1.1521-4.4297 0-5.14651 4.31771-9.33333 9.62493-9.33333 5.3073 0 9.625 4.18688 9.625 9.33333 0 1.5449-.3981 3.0768-1.1488 4.4238z"/><path d="m11 5.33329c-3.0326 0-5.49992 2.39256-5.49992 5.33331 0 2.9408 2.46732 5.3334 5.49992 5.3334 3.0327 0 5.5-2.3926 5.5-5.3333 0-2.94078-2.4673-5.33341-5.5-5.33341zm0 9.33341c-2.27463 0-4.12495-1.7943-4.12495-4 0-2.20578 1.85032-4.00003 4.12495-4.00003 2.2747 0 4.125 1.79425 4.125 4.00003 0 2.2057-1.8503 4-4.125 4z"/></g></svg>