<svg fill="none" height="60" viewBox="0 0 60 60" width="60" xmlns="http://www.w3.org/2000/svg"><g fill="#f1cdb3"><path d="m57.297 10.2511c-1.5591-1.25435-3.7577-2.36974-6.5353-3.31497-5.5633-1.8934-12.9367-2.93613-20.762-2.93613s-15.1986 1.04285-20.76183 2.93613c-2.77757.94523-4.97624 2.06062-6.5353 3.31497-1.793197 1.4431-2.70257 3.0352-2.70257 4.7319v13.1159c0 1.6968.909373 3.2889 2.70269 4.7319 1.55906 1.2543 3.75761 2.3697 6.5353 3.315 5.28451 1.7985 12.20291 2.8287 19.59011 2.9275v4.7022h-4.0412c-.4477-2.3656-2.5302-4.1599-5.024-4.1599-2.8194 0-5.113 2.2937-5.113 5.1128 0 1.2258.4348 2.3864 1.204 3.2965-.7789.9217-1.2055 2.0898-1.204 3.2965 0 2.8193 2.2936 5.1129 5.113 5.1129 2.4938 0 4.5763-1.7945 5.024-4.1599h10.4262c.4477 2.3655 2.5302 4.1599 5.024 4.1599 2.8194 0 5.113-2.2937 5.113-5.1129 0-1.2258-.4348-2.3864-1.204-3.2965.7789-.9217 1.2055-2.0898 1.204-3.2965 0-2.8193-2.2936-5.1128-5.113-5.1128-2.4938 0-4.5763 1.7944-5.024 4.1599h-4.0412v-4.7022c7.3872-.0988 14.3056-1.129 19.5901-2.9275 2.7776-.9453 4.9762-2.0607 6.5353-3.315 1.7933-1.443 2.7027-3.0351 2.7027-4.7319v-13.1159c-.0004-1.6967-.9097-3.2888-2.703-4.7319zm-20.9948 35.8682c.1593 0 .3169-.0325.4633-.0955.1463-.063.2783-.1552.3878-.271.1095-.1157.1943-.2525.2491-.4021.0549-.1496.0786-.3088.0699-.4679-.0029-.0514-.0044-.1028-.0046-.1542 0-1.527 1.2423-2.7692 2.7692-2.7692 1.527 0 2.7693 1.2423 2.7693 2.7692 0 .9357-.4685 1.8017-1.2532 2.3167-.1625.1067-.2959.2521-.3882.4231s-.1406.3623-.1406.5566c0 .1944.0483.3857.1406.5567s.2257.3164.3882.423c.7847.5151 1.2532 1.3811 1.2532 2.3168 0 1.527-1.2423 2.7691-2.7693 2.7691-1.5269 0-2.7692-1.2423-2.7692-2.7691 0-.0518.0019-.1031.0046-.1542.0088-.1591-.0149-.3184-.0697-.468s-.1396-.2865-.2491-.4023c-.1095-.1157-.2415-.2079-.3879-.2709s-.3041-.0954-.4634-.0954h-12.6047c-.1593.0001-.317.0326-.4633.0956-.1464.063-.2783.1552-.3879.2709-.1095.1158-.1942.2526-.2491.4022-.0548.1496-.0786.3088-.0698.4679.0027.0511.0045.1024.0045.1542 0 1.527-1.2423 2.7691-2.7692 2.7691-1.527 0-2.7693-1.2423-2.7693-2.7691 0-.9357.4686-1.8017 1.2532-2.3168.1625-.1066.2959-.252.3882-.423s.1407-.3623.1407-.5567c0-.1943-.0484-.3856-.1407-.5566s-.2257-.3164-.3882-.4231c-.7846-.515-1.2532-1.381-1.2532-2.3167 0-1.527 1.2423-2.7692 2.7693-2.7692 1.5269 0 2.7692 1.2423 2.7692 2.7692 0 .0517-.0018.1031-.0045.1542-.0089.1591.0148.3183.0696.468.0549.1496.1396.2865.2492.4022.1095.1158.2415.208.3879.2709.1463.063.304.0955.4634.0954zm-6.3024-9.381c-1.5563 0-2.8226-1.2663-2.8226-2.8226 0-1.5564 1.2663-2.8226 2.8226-2.8226 1.5564 0 2.8226 1.2662 2.8226 2.8226 0 1.5563-1.2662 2.8226-2.8226 2.8226zm27.6561-8.6394c0 3.7078-9.3514 7.7996-23.2594 8.5259.504-.8137.7706-1.7521.7696-2.7092 0-.3693-.0397-.7294-.1136-1.077 4.5481-.2982 8.773-.9769 12.297-1.9824.6223-.1777.983-.8261.8053-1.4485-.1776-.6224-.8258-.9829-1.4484-.8053-3.6165 1.032-8.0275 1.705-12.7853 1.9553-.9482-1.1058-2.3538-1.8083-3.9213-1.8083-1.5757 0-2.988.7099-3.9364 1.8259-3.2249-.1539-6.2895-.4982-9.1131-1.0294-.6354-.1199-1.2486.2989-1.3683.9349-.1196.6361.299 1.2486.9351 1.3684 2.6321.4952 5.4604.834 8.4247 1.0133-.072.3464-.1083.6994-.1082 1.0532-.0009.9572.2657 1.8955.7697 2.7092-13.9081-.7263-23.25955-4.8181-23.25955-8.526v-8.685l.01593.0133c.11237.0982.22669.1941.34289.2877.15666.1253.31628.2468.47871.3645l.00246.0017c.08743.0637.17661.127.26743.1899l.04054.0279c.08543.0587.17203.1172.26039.1752.01781.0117.0361.0234.05414.0351.08918.058.17942.1159.27153.1732l.03972.0244c1.38492.8564 3.09843 1.635 5.12027 2.3231 5.56324 1.8934 12.93654 2.9362 20.76194 2.9362s15.1987-1.0428 20.762-2.9362c2.022-.6881 3.7357-1.4668 5.1207-2.3233l.0392-.0241c.0923-.0574.1826-.1153.2719-.1734l.0539-.0349c.0884-.058.1751-.1165.2605-.1752l.0406-.0279c.0908-.0629.18-.1262.2674-.1898l.0025-.0018c.1624-.1176.322-.2392.4787-.3645.1161-.0936.2305-.1895.3429-.2876l.0159-.0134zm-50.12662-8.2446c1.02082-.4667 2.41711-1.0026 4.27312-1.523 5.0429-1.414 11.5057-2.1926 18.1974-2.1926 6.6918 0 13.1545.7787 18.1973 2.1926 1.8562.5203 3.2526 1.0562 4.2733 1.523-4.8497 2.1613-12.7883 3.7681-22.4706 3.7681-9.6822 0-17.6208-1.607-22.47052-3.7681zm50.11922-4.6995c-.0051.0684-.0133.1365-.0245.2042l-.0015.0106c-.0127.072-.0285.1433-.0475.2139-.0134.051-.0285.1016-.045.1518l-.0096.0294c-.0258.0743-.0546.1475-.0862.2196-.0124.0285-.0259.0568-.0394.0853-.0269.0567-.0553.1132-.086.1691l-.0082.015c-.4876.8801-1.4081 1.6499-2.3222 2.251-1.2138-.6992-3.1605-1.5923-6.1483-2.4301-5.2431-1.47-11.9304-2.2794-18.8302-2.2794-6.8997 0-13.5869.8095-18.8302 2.2795-2.98768.8377-4.93428 1.7308-6.14823 2.4302-.91394-.6011-1.83444-1.371-2.32218-2.2511l-.0082-.015c-.0307-.056-.05906-.1125-.08613-.1693-.01336-.0284-.02684-.0566-.03914-.085-.01055-.0239-.02051-.0479-.03036-.0719-.02004-.0493-.03914-.0985-.05601-.1477-.0034-.0097-.00645-.0197-.00973-.0294-.02115-.064-.03979-.1287-.0559-.1941-.01424-.0567-.02644-.1139-.03656-.1715l-.00152-.0107c-.01118-.0677-.01936-.1358-.02449-.2041-.00472-.0573-.00722-.1147-.0075-.1721 0-4.0863 11.35795-8.63925 27.65605-8.63925 16.2982 0 27.6561 4.55295 27.6561 8.63925 0 .0572-.003.1145-.0074.1718z"/><path d="m48.1765 11.6432c-.0456-.227-.1568-.4356-.3198-.6-.0545-.0542-.1142-.1028-.1782-.1453-.1279-.085-.2712-.1443-.4218-.1746-.1512-.0305-.307-.0305-.4582 0-.075.0152-.1476.0375-.2191.0668-.0703.0293-.1383.0656-.2016.1078-.0644.0422-.1242.0914-.1793.1453-.0539.0539-.1019.1149-.1452.1781-.085.128-.1443.2713-.1746.4219-.0152.0762-.0223.1524-.0223.2285 0 .0774.0072.1535.0223.2297.0303.1506.0896.2939.1746.4219.0433.0633.0913.123.1452.1781.0552.0539.115.102.1793.1453.0633.0422.1313.0785.2016.1078.0715.0293.1442.0516.2191.0668.0762.0153.1536.0235.2297.0235.0762 0 .1536-.0082.2285-.0235.075-.0152.149-.0375.2192-.0668.0703-.0293.1382-.0656.2026-.1078.0633-.0433.1243-.0914.1782-.1453.0539-.0551.1031-.1148.1453-.1781.085-.128.1443-.2713.1745-.4219.0154-.0762.0235-.1523.0235-.2297 0-.0763-.0081-.1524-.0235-.2285z"/><path d="m43.4829 9.86056c-4.0374-.75961-8.6329-1.16121-13.2894-1.16121-6.4447 0-12.675.765-17.5431 2.15425-.6222.1777-.9829.8261-.8053 1.4484.1467.5151.616.8507 1.1262.8507.1064 0 .2147-.0145.3221-.0452 4.6648-1.3312 10.6666-2.0643 16.9-2.0643 4.5136 0 8.9591.3876 12.8561 1.1208.6363.1194 1.2486-.2989 1.3684-.935.1197-.6361-.299-1.24856-.935-1.36844z"/><path d="m14.121 29.6092c-.0152-.075-.0375-.1488-.0668-.2203-.0293-.0703-.0656-.1383-.1078-.2016-.0426-.0642-.0917-.1239-.1465-.1781-.0539-.0539-.1137-.1031-.1781-.1465-.0633-.0422-.1313-.0773-.2017-.1066-.0706-.0296-.144-.052-.2191-.0668-.1512-.0305-.3069-.0305-.4581 0-.0751.014-.149.0375-.2192.0668-.0714.0293-.1394.0644-.2027.1066-.0644.0434-.1242.0926-.1781.1465s-.1031.1137-.1453.1781c-.0422.0633-.0785.1313-.1078.2016-.0293.0715-.0516.1453-.0668.2203-.0153.075-.0235.1523-.0235.2285.0008.1537.0314.3057.0903.4477.0293.0714.0656.1394.1078.2027.0422.0644.0914.1241.1453.1781.0539.0539.1137.1031.1781.1453.0633.0434.1313.0786.2027.1078.0704.0293.1441.0528.2192.0668.075.0153.1523.0235.2284.0235.0762 0 .1536-.0082.2297-.0235.0751-.0148.1485-.0372.2191-.0668.0708-.0288.1384-.065.2017-.1078.0642-.0422.1239-.0909.1781-.1453.1093-.1087.1958-.2382.2543-.3808.0592-.1418.0894-.294.089-.4477 0-.0763-.0071-.1535-.0222-.2285z"/></g></svg>