<svg fill="none" height="32" viewBox="0 0 40 32" width="40" xmlns="http://www.w3.org/2000/svg"><g fill="#f1cdb3"><path d="m39.315 3h-38.630036c-.181664 0-.355887.07325-.484343.20362-.1284553.13038-.200621.30722-.200621.4916v24.60958c0 .1844.0721657.3612.200621.4916.128456.1304.302679.2036.484343.2036h38.630036c.1817 0 .3559-.0732.4844-.2036.1284-.1304.2006-.3072.2006-.4916v-24.60958c0-.18438-.0722-.36122-.2006-.4916-.1285-.13037-.3027-.20362-.4844-.20362zm-6.7376 15.0331c.1072.4928.218 1.0024.0739 1.2551-.1547.2714-.6547.4291-1.1382.5817-.3815.1203-.7758.2448-1.1274.4513-.3396.1994-.6334.4789-.9174.7492-.3911.3722-.7604.7236-1.0943.7236-.334 0-.7034-.3515-1.0943-.7236-.2841-.2703-.5779-.5499-.9175-.7492-.3515-.2065-.7459-.3309-1.1274-.4513-.4835-.1526-.9835-.3103-1.1381-.5817-.1441-.2527-.0334-.7623.0738-1.2551.0879-.4046.1788-.8228.1788-1.251 0-.4281-.0909-.8465-.1788-1.251-.1072-.4928-.2179-1.0023-.0738-1.2552.1546-.2713.6546-.4291 1.1381-.5817.3815-.1203.7759-.2448 1.1274-.4512.3396-.1995.6334-.479.9175-.7493.3909-.3721.7603-.7236 1.0943-.7236.3339 0 .7033.3515 1.0943.7236.284.2703.5778.5498.9174.7493.3516.2063.7459.3308 1.1274.4511.4835.1526.9835.3104 1.1381.5817.1442.2528.0334.7623-.0738 1.2551-.0879.4045-.1788.8228-.1788 1.251 0 .4283.0909.8467.1788 1.2512zm-1.9799-6.3723c-.063-.0584-.127-.1192-.1922-.1813-.5149-.4899-1.1556-1.0997-2.0313-1.0997-.8758 0-1.5165.6098-2.0314 1.0997-.2381.2266-.463.4406-.6665.5601-.2187.1284-.5243.2249-.848.327-.7005.221-1.4945.4715-1.9172 1.2131-.4108.7207-.2341 1.5337-.0781 2.251.0753.347.1466.6748.1466.9514s-.0713.6045-.1466.9515c-.1353.622-.2855 1.316-.0553 1.9594l-2.7778 2.8534-17.67521-18.15596h35.35031zm-18.8968 4.3392-10.33077 10.6116v-21.22348zm.9628.989 6.8489 7.0352c.0637.0654.1395.1174.2232.1528.0836.0355.1733.0538.264.0538.0906 0 .1804-.0183.264-.0538.0836-.0354.1595-.0874.2232-.1528l3.1973-3.2844c.3599.2096.7654.3383 1.144.4578.3237.1021.6294.1986.848.3269.2035.1195.4283.3336.6665.5601.5149.49 1.1556 1.0998 2.0314 1.0998.8756 0 1.5164-.6098 2.0313-1.0998.2381-.2266.4629-.4406.6665-.5602.1325-.0778.2973-.1438.4784-.2065l6.1248 6.2915h-35.35069zm20.3029 3.8056c.3453-.1838.6559-.4334.8707-.81.4108-.7207.234-1.5338.078-2.251-.0753-.347-.1465-.6749-.1465-.9515s.0712-.6044.1465-.9514c.156-.7173.3328-1.5302-.0781-2.251-.4228-.7416-1.2167-.9921-1.9173-1.2131l-.0638-.0203 6.7742-6.95892v21.22482z"/><path d="m28.374 13.2424c-1.923 0-3.4875 1.5878-3.4875 3.5396 0 1.9517 1.5645 3.5395 3.4875 3.5395s3.4874-1.5878 3.4874-3.5395c0-1.9518-1.5645-3.5396-3.4874-3.5396zm0 5.6887c-1.1676 0-2.1176-.9641-2.1176-2.1491 0-1.1851.9499-2.1492 2.1176-2.1492 1.1676 0 2.1175.9641 2.1175 2.1492 0 1.185-.95 2.1491-2.1175 2.1491z"/></g></svg>