<svg fill="none" height="60" viewBox="0 0 60 60" width="60" xmlns="http://www.w3.org/2000/svg"><g fill="#f1cdb3"><path d="m59.6564 15.8985-15.555-15.555375c-.4576-.4575-1.1994-.4575-1.6574 0l-4.1426 4.142345c-.2197.21978-.3432.51784-.3432.82863s.1235.60885.3432.82863l4.9211 4.92097-4.6589 4.6589-7.1711-7.17108c-.4577-.45761-1.1996-.4575-1.6574 0l-4.7584 4.75838c-.2197.2198-.3431.5179-.3431.8287 0 .3107.1234.6088.3431.8286l1.5113 1.5112-19.42291 19.4236c-1.78477 1.7848-1.78477 4.6891 0 6.4742l1.49121 1.4912-2.73422 2.7342c-.10883.1088-.19516.238-.25406.3802s-.08921.2945-.08921.4484.03031.3063.08921.4485.14523.2714.25406.3802l2.1307 2.1308-7.609567 7.6094c-.457617.4577-.457617 1.1997 0 1.6574.228867.2289.52875.3433.828637.3433.29988 0 .59988-.1144.82863-.3433l7.60969-7.6097 2.13083 2.1309c.2198.2197.5178.3431.8286.3431s.6089-.1234.8287-.3431l2.7342-2.7343 1.4912 1.4913c.8646.8646 2.0143 1.3407 3.2371 1.3407 1.2227 0 2.3724-.4761 3.237-1.3407l19.4231-19.4231 1.5113 1.5113c.1087.109.2379.1954.3801.2543s.2946.0891.4485.0889c.3 0 .5998-.1143.8287-.3432l4.7582-4.7584c.2198-.2198.3432-.5179.3432-.8286 0-.3108-.1234-.6089-.3432-.8287l-7.171-7.171 4.6589-4.6589 4.9209 4.9209c.1087.109.2379.1954.3801.2543s.2946.0891.4486.0889c.3 0 .5997-.1143.8286-.3432l4.1425-4.1425c.4578-.4575.4578-1.1995.0001-1.6572zm-34.9206 5.6475 5.4218 5.4218c.1087.109.2378.1954.38.2543.1423.0589.2947.0891.4486.0889.3 0 .5998-.1144.8287-.3432.4576-.4576.4576-1.1997 0-1.6573l-5.4218-5.4218 1.7523-1.7523 10.0886 10.0887-5.3593 5.3593-10.0888-10.0888zm-12.1662 30.1456-4.26162-4.2615 1.90572-1.9055 4.2614 4.2615zm9.8707-.4143c-.8709.8709-2.2883.871-3.1592 0l-10.55875-10.5586c-.87105-.8711-.87105-2.2885 0-3.1594l1.66925-1.6692 2.8856 2.8856c.2289.2289.5287.3432.8286.3432s.5999-.1143.8287-.3432c.4576-.4576.4576-1.1996 0-1.6574l-2.8857-2.8856 1.9286-1.9287 5.4217 5.4217c.2288.2289.5287.3432.8286.3432s.5999-.1144.8286-.3432c.4577-.4576.4577-1.1996 0-1.6573l-5.4218-5.4218 1.9287-1.9286 2.8856 2.8856c.2289.2289.5288.3432.8287.3432s.5999-.1143.8286-.3432c.4576-.4576.4576-1.1997 0-1.6574l-2.8856-2.8856 1.9076-1.9076 10.0887 10.0887-7.6208 7.6209c-.4576.4576-.4576 1.1997 0 1.6574.2289.2289.5288.3432.8287.3432.2998 0 .5998-.1145.8286-.3432l7.6208-7.6209 1.9718 1.9718zm14.0638-14.0636-1.9718-1.972 5.3594-5.3595 1.9717 1.9718zm12.4577-7.7778-3.101 3.101-18.3981-18.398 3.1011-3.101zm-6.3423-9.657-2.3987-2.3987 4.6589-4.659 2.3987 2.3987zm12.066-.5666-13.898-13.89808 2.4852-2.4852 13.898 13.89798z"/><path d="m22.3156 46.7207c-.014-.075-.0375-.1488-.0668-.2191-.0291-.071-.0652-.1389-.1078-.2028-.0422-.0644-.0914-.1242-.1453-.1781s-.1137-.1031-.1781-.1453c-.0639-.0426-.1318-.0787-.2028-.1078-.0703-.0293-.1441-.0516-.2191-.0668-.1508-.0305-.3062-.0305-.457 0-.075.0152-.1489.0375-.2192.0668-.0715.0293-.1394.0656-.2027.1078-.0645.0422-.1242.0914-.1781.1453s-.1032.1137-.1453.1781c-.0422.0632-.0786.1313-.1079.2028-.0293.0703-.0527.1441-.0668.2191-.0152.075-.0234.1524-.0234.2285 0 .0762.0082.1536.0234.2297.0141.0739.0375.1477.0668.2192.0293.0703.0657.1383.1079.2015.0421.0645.0914.1243.1453.1782.1087.1093.2382.1957.3808.2543.1418.0592.294.0895.4477.089.1536.0005.3058-.0298.4476-.089.1427-.0586.2722-.145.3809-.2543.0539-.0539.1031-.1137.1453-.1782.0422-.0632.0785-.1312.1078-.2015.0293-.0715.0528-.1453.0668-.2192.0153-.0761.0235-.1535.0235-.2297 0-.0761-.0082-.1535-.0235-.2285z"/></g></svg>