<svg fill="none" height="60" viewBox="0 0 60 60" width="60" xmlns="http://www.w3.org/2000/svg"><g fill="#f1cdb3"><path d="m37.1303 17.1814v-5.4423c0-.7203-.584-1.3043-1.3043-1.3043h-.9783v-9.1305c0-.720355-.584-1.3043-1.3043-1.3043h-8.4783c-.7203 0-1.3043.583945-1.3043 1.3043v9.1304h-.9783c-.7203 0-1.3043.584-1.3043 1.3043v5.4423c-4.5805 1.8265-7.8261 6.3066-7.8261 11.5307v29.9836c0 .7203.5839 1.3043 1.3043 1.3043h28.6957c.7204 0 1.3043-.584 1.3043-1.3043v-29.9835c-.0001-5.2242-3.2457-9.7043-7.8261-11.5307zm-10.7609-14.57269h5.8696v7.82609h-5.8696zm-2.2827 10.43469h10.4347v3.2609h-10.4347zm18.2609 44.3479h-26.0869v-28.6792c0-5.4033 4.3958-9.7991 9.799-9.7991h6.4889c5.4033 0 9.799 4.3958 9.799 9.7991z"/><path d="m37.7825 27.3913h-16.9566c-.7203 0-1.3043.5839-1.3043 1.3043v24.1304c0 .7204.584 1.3043 1.3043 1.3043h16.9566c.7203 0 1.3043-.5839 1.3043-1.3043v-8.1973c0-.7203-.584-1.3043-1.3043-1.3043-.7204 0-1.3043.584-1.3043 1.3043v6.893h-14.3479v-21.5217h14.3479v4.1287c0 .7204.5839 1.3043 1.3043 1.3043.7203 0 1.3043-.5839 1.3043-1.3043v-5.433c0-.7205-.584-1.3044-1.3043-1.3044z"/><path d="m37.7824 38.0645c-.7203 0-1.3043.5839-1.3043 1.3043v.1304c0 .7203.584 1.3043 1.3043 1.3043.7204 0 1.3043-.584 1.3043-1.3043v-.1304c0-.7204-.5839-1.3043-1.3043-1.3043z"/><path d="m27.9922 41.1512c-2.1577 0-3.913 1.7554-3.913 3.913 0 2.1577 1.7553 3.9131 3.913 3.9131s3.913-1.7554 3.913-3.9131c0-2.1575-1.7553-3.913-3.913-3.913zm0 5.2175c-.7192 0-1.3043-.5852-1.3043-1.3043 0-.7192.5851-1.3043 1.3043-1.3043s1.3043.5851 1.3043 1.3043c0 .7191-.585 1.3043-1.3043 1.3043z"/><path d="m34.8456 35.9842c0-2.1576-1.7553-3.913-3.913-3.913s-3.913 1.7554-3.913 3.913c0 2.1577 1.7553 3.9131 3.913 3.9131 2.1575.0001 3.913-1.7554 3.913-3.9131zm-3.9131 1.3045c-.7192 0-1.3043-.5852-1.3043-1.3043 0-.7192.5851-1.3043 1.3043-1.3043s1.3043.5851 1.3043 1.3043c0 .7191-.5849 1.3043-1.3043 1.3043z"/></g></svg>