<svg fill="none" height="60" viewBox="0 0 60 60" width="60" xmlns="http://www.w3.org/2000/svg"><g fill="#f1cdb3"><path d="m51.2132 8.78672c-5.6663-5.66602-13.1999-8.78672-21.2132-8.78672s-15.5469 3.1207-21.21316 8.78672c-5.66637 5.66638-8.78684 13.19988-8.78684 21.21328s3.12047 15.5469 8.78684 21.2133c5.66626 5.666 13.19986 8.7867 21.21316 8.7867s15.5469-3.1207 21.2132-8.7867c5.6663-5.6664 8.7868-13.1999 8.7868-21.2133s-3.1205-15.5469-8.7868-21.21328zm-40.5818 40.58178c-4.72702-4.727-7.51222-10.8779-7.95788-17.4853.71648.0245 1.44878.0923 2.18871.2024 5.30317.7877 10.64007 3.6378 15.02717 8.025 4.3872 4.3873 7.2372 9.724 8.025 15.0273.1079.7207.175 1.447.201 2.1753-6.3735-.4357-12.6226-3.0834-17.484-7.9447zm20.0948 7.9997c-.0249-.8751-.1023-1.7479-.2316-2.6137-.8695-5.8526-3.9807-11.7085-8.7608-16.4886-4.78-4.78-10.6358-7.8913-16.4886-8.7608-.87018-.13-1.74739-.2074-2.62688-.2319.02273-.876.08648-1.7449.19008-2.605.92953.0305 1.87406.1161 2.82023.2566 6.40217.9509 12.77687 4.3236 17.94987 9.4965 5.1727 5.1726 8.5454 11.5474 9.4965 17.9496.1383.9295.2237 1.8661.2557 2.8054-.8646.1051-1.7338.1692-2.6045.1919zm18.6423-7.9997c-3.8269 3.8267-8.5134 6.2819-13.4437 7.3663-.0438-.9196-.1336-1.8365-.2691-2.7471-1.0328-6.9519-4.6668-13.8454-10.2323-19.4111-5.5659-5.5657-12.4594-9.1994-19.4111-10.2322-.9141-.1362-1.83448-.2262-2.75765-.2698l-.00715.0059c1.10848-5.0567 3.63551-9.7007 7.384-13.4491 3.6608-3.66085 8.1084-6.06624 12.8034-7.21738.0323 1.07813.1283 2.1534.2875 3.2202 1.0326 6.95168 4.6665 13.84528 10.2322 19.41108 5.5657 5.5657 12.4593 9.1994 19.4113 10.2322 1.0699.1598 2.1484.2559 3.2297.2878l.0117-.0194c-1.175 4.8136-3.6456 9.2295-7.2388 12.8226zm7.7386-15.4025c-1.1007-.011-2.2257-.1007-3.3579-.2688-6.4024-.9511-12.7772-4.3237-17.9499-9.4966-5.1728-5.1729-8.5455-11.5475-9.4964-17.94958-.1675-1.12723-.2574-2.24731-.2689-3.34278.8659-.12563 1.7372-.20998 2.6111-.25277-.002 1.04707.0763 2.12203.2381 3.21223.8695 5.8527 3.9809 11.7086 8.7609 16.4885.5093.5092 1.3353.5092 1.8447 0 .5093-.5093.5093-1.3352 0-1.8448-4.3872-4.3871-7.2372-9.7238-8.025-15.02714-.1433-.96528-.2139-1.91391-.2117-2.83371 6.5913.29882 13.0946 2.95863 18.1167 7.98095 4.8773 4.8773 7.6877 11.2705 7.9935 18.1168-.9256.002-1.8768-.0679-2.8464-.212-.7124-.1058-1.3762.3862-1.4819 1.0987-.1059.7126.386 1.3759 1.0985 1.4817 1.0775.1601 2.1404.2402 3.1758.2402.0169 0 .0334-.0009.0503-.0009-.0426.8735-.1265 1.7444-.2515 2.61z"/><path d="m46.1517 25.775c-.3458.0006-.6773.1381-.9221.3823-.2442.2448-.3816.5763-.3822.922 0 .3431.1383.6796.3822.9222.2425.2427.5791.3821.9221.3821s.6796-.1394.9222-.3821c.2437-.2452.381-.5765.3821-.9222 0-.343-.1396-.6795-.3821-.922-.2449-.2442-.5764-.3817-.9222-.3823z"/></g></svg>