<svg fill="none" height="60" viewBox="0 0 60 60" width="60" xmlns="http://www.w3.org/2000/svg"><g fill="#f1cdb3"><path d="m57.9526 19.9663-26.9722-19.740044c-.2008-.1470098-.4433-.226256-.6922-.226256s-.4913.0792462-.6921.226256l-26.97215 19.740044c-.52219.3822-.63575 1.1155-.25348 1.6378l3.52535 4.817c.09086.1242.20531.2293.33681.3093.13149.08.27747.1333.42957.1568s.30735.0169.45688-.0196.29039-.1021.41455-.1931l1.06383-.7786v32.9321c0 .6471.52477 1.1718 1.17188 1.1718h41.09976c.6471 0 1.1719-.5247 1.1719-1.1718v-32.8867l1.0019.7332c.1242.091.2651.1565.4146.193s.3047.0431.4568.0196.298-.0768.4295-.1568c.1315-.0799.246-.185.3368-.3092l3.5254-4.817c.3824-.5225.2688-1.2556-.2534-1.6378zm-8.2554 33.1193h-27.7256c-.6471 0-1.1719.5247-1.1719 1.1718s.5248 1.1719 1.1719 1.1719h27.7256v2.2269h-38.7561v-32.5512h27.4432c.6471 0 1.1719-.5247 1.1719-1.1718s-.5248-1.1719-1.1719-1.1719h-25.503l17.407-12.74 19.4089 14.2047zm3.7842-28.9945-22.501-16.46762c-.2008-.1471-.4432-.22636-.6921-.22629-.2489-.0001-.4914.07917-.6921.22629l-22.5012 16.46762-2.14113-2.9257 25.33453-18.54149 25.3345 18.54149z"/><path d="m43.7555 23.7046c-.0152-.0751-.0387-.1489-.068-.2204-.0293-.0703-.0656-.1383-.1078-.2016-.0422-.0642-.0909-.1239-.1453-.1781-.2203-.219-.5179-.3424-.8285-.3435-.3082 0-.6106.1254-.8284.3435-.0539.0539-.1031.1137-.1453.1781-.0422.0633-.0785.1313-.1078.2016-.0293.0715-.0528.1453-.0668.2204-.0153.075-.0235.1523-.0235.2284 0 .0762.0082.1536.0235.2285.014.0749.0375.1488.0668.2203.0293.0705.0656.1384.1078.2017.0422.0645.0914.1241.1453.1781.0539.0539.1137.1032.1781.1453.0633.0421.1313.0786.2027.1079.0704.0293.1441.0527.2192.0668.075.0152.1523.0233.2284.0233.0762 0 .1536-.0081.2285-.0233.0752-.0146.1486-.037.2191-.0668.0715-.0293.1395-.0658.2028-.1079.0644-.0421.1241-.0914.1781-.1453.0539-.0539.1031-.1136.1453-.1781.0422-.0633.0785-.1312.1078-.2017.0293-.0713.0528-.1453.068-.2203s.0221-.1523.0221-.2285c0-.0761-.007-.1535-.0221-.2284z"/><path d="m18.8986 54.0281c-.015-.075-.0374-.1484-.0667-.2191-.0293-.0704-.0658-.1395-.1079-.2027-.0425-.064-.0911-.1237-.1452-.1782-.0539-.0539-.1138-.1019-.1782-.1453-.128-.085-.2712-.1443-.4218-.1746-.1512-.0305-.307-.0305-.4582 0-.0739.0152-.1477.0375-.2192.0668-.0703.0293-.1383.0656-.2015.1078-.0645.0422-.1244.0914-.1782.1453-.055.0539-.1031.1149-.1464.1782-.085.1279-.1443.2712-.1745.4218-.0154.0762-.0223.1524-.0223.2285-.0005.154.0297.3066.0889.4488.0293.0704.0658.1384.1079.2027.0433.0633.0914.1231.1464.1781.0539.0541.1138.1033.1782.1453.0632.0422.1312.0786.2015.1079.0715.0292.1453.0515.2192.0667.0761.0153.1535.0235.2297.0235.2315-.001.4576-.0698.6503-.1981.0643-.0421.124-.0908.1782-.1453.0539-.055.1031-.1147.1452-.1781.1284-.193.1973-.4196.198-.6515 0-.0761-.0082-.1524-.0234-.2285z"/><path d="m44.8447 30.5741c0-.9938-.3897-1.9265-1.0975-2.626-.701-.6927-1.6596-1.0805-2.6371-1.0721-.3082.0033-.6147.0448-.9127.1237-2.17.5557-4.2902 1.2905-6.3387 2.1969-1.1699-.2767-2.3681-.416-3.5703-.4153-.677 0-1.3599.0444-2.0304.132-.5177.0683-1.0316.1628-1.5397.2833-2.0482-.9063-4.168-1.641-6.3377-2.1967-.0105-.0029-.0209-.0057-.0314-.0084-1.1534-.2937-2.3429-.0296-3.2632.7256-.9202.7549-1.4116 1.8696-1.3484 3.0574.0645 1.2193.1845 2.4351.3594 3.6435.1572 1.0832.3579 2.1596.6018 3.2266-.3628.9283-.6156 1.8959-.7532 2.883-.0572.4121-.0861.8277-.0865 1.2438 0 5.2459 4.5746 9.5139 10.1977 9.5139h8.4636c3.0822 0 5.9657-1.2818 7.9113-3.5167 1.783-2.0481 2.5642-4.62 2.1997-7.2417-.0785-.5621-.1941-1.1184-.3462-1.6652-.1153-.4119-.2509-.8179-.4064-1.2164.5158-2.2575.8372-4.5552.9606-6.8676.0036-.0686.0053-.1361.0053-.2036zm-2.3459.0729-.0003.004c-.1224 2.298-.4524 4.5802-.9861 6.8187-.0581.2436-.0366.4995.0613.73.1786.4202.33.8514.4532 1.291.1241.4463.2184.9003.2825 1.359.2698 1.94-.3148 3.8507-1.646 5.3799-1.5004 1.7233-3.7395 2.7118-6.1436 2.7118h-8.4636c-4.3306 0-7.8539-3.2165-7.8539-7.17 0-.3035.0217-.614.0642-.9218.1274-.9116.3748-1.8023.7358-2.6489.0983-.2308.1199-.4869.0618-.7309-.2667-1.119-.483-2.2495-.6482-3.3879-.1647-1.138-.2777-2.2829-.3384-3.4311-.0232-.436.157-.8448.4946-1.1219.2473-.2029.5478-.3093.857-.3093.1054 0 .2119.0123.3177.0375l.0233.0062c2.1793.5561 4.3051 1.3041 6.3524 2.2352.2473.1127.526.1361.7886.0661.5426-.1447 1.0941-.254 1.6509-.3274.5692-.0744 1.15-.1122 1.7257-.1122 1.1478 0 2.2837.1479 3.3765.4396.2623.0696.5407.0468.7878-.0656 2.0546-.9344 4.1882-1.6845 6.3754-2.2417.1001-.024.2026-.0366.3055-.0377h.0153c.3503 0 .6962.1436.951.3953.1274.1251.2286.2743.2975.439.069.1647.1043.3416.1038.5201.0001.0243-.0004.0484-.0017.073z"/><path d="m32.4862 43.5662c-.5657 0-1.026-.4603-1.026-1.0259 0-.6471-.5247-1.1719-1.1719-1.1719s-1.1719.5248-1.1719 1.1719v.0428c0 .5656-.4602 1.0259-1.0258 1.0259-.6473 0-1.1719.5248-1.1719 1.1719s.5246 1.1719 1.1719 1.1719c.8507 0 1.6286-.3172 2.2223-.8393.607.5149 1.3773.7972 2.1733.7964.6471 0 1.1718-.5248 1.1718-1.1719 0-.6472-.5247-1.1718-1.1718-1.1718z"/><path d="m26.1919 38.1664-1.7407-.7976c-.1531-.0703-.3196-.1067-.4881-.1067-.1684 0-.3349.0364-.4881.1067l-1.7408.7976c-.5884.2695-.8469.965-.5772 1.5534.064.1399.1551.2658.2678.3706.1128.1047.245.1862.3893.2398s.2977.0783.4514.0726c.1538-.0057.305-.0416.4449-.1057l1.2526-.5739 1.2526.5739c.5881.2698 1.2839.0111 1.5535-.5773.2697-.5884.0111-1.284-.5772-1.5534z"/><path d="m38.8423 38.1662-1.7407-.7976c-.1531-.0703-.3196-.1066-.4881-.1066-.1684 0-.3349.0363-.488.1066l-1.7408.7976c-.5884.2695-.8469.965-.5772 1.5534.2696.5887.9651.8473 1.5534.5773l1.2526-.5739 1.2527.5739c.1528.0703.3191.1067.4873.1067.4442 0 .869-.2538 1.0661-.684.2696-.5884.0112-1.2839-.5773-1.5534z"/></g></svg>