<svg fill="none" height="60" viewBox="0 0 60 60" width="60" xmlns="http://www.w3.org/2000/svg"><g fill="#f1cdb3"><path d="m59.985 39.8551-2.8595-19.211c-.0463-5.5784-3.4325-10.75107-9.3096-14.20645-4.8676-2.8616-11.1946-4.43765-17.8158-4.43765-6.6215 0-12.9486 1.57605-17.8163 4.43765-5.8769 3.45538-9.26326 8.62805-9.30943 14.20645l-2.8594872 19.211c-.00984375.0665-.0148828.1336-.0148828.2009 0 5.6489 3.76452 10.88 10.3284 14.352 5.3738 2.8424 12.3599 4.4078 19.6717 4.4078 7.3115 0 14.2977-1.5654 19.6715-4.4078 6.5638-3.472 10.3284-8.7031 10.3284-14.352-.0001-.0672-.0051-.1344-.015-.2009zm-46.4182-31.06515c4.4547-2.6189 10.2908-4.06124 16.4333-4.06124 6.1423 0 11.9784 1.44234 16.433 4.06124 5.0625 2.97635 7.9662 7.33935 7.9662 11.96995 0 4.6307-2.9036 8.9936-7.9661 11.97-4.4547 2.6189-10.2908 4.0612-16.4331 4.0612-6.1424 0-11.9786-1.4423-16.4332-4.0612-5.0625-2.9763-7.96617-7.3393-7.96617-11.97 0-4.6306 2.90355-8.9935 7.96607-11.96995zm34.8288 43.20605c-4.9877 2.6382-11.5206 4.0911-18.3955 4.0911-6.8751 0-13.4081-1.4529-18.3957-4.0911-5.60066-2.9627-8.82987-7.2742-8.87523-11.8425l1.8784-12.6193c1.56468 2.927 4.14526 5.5303 7.57653 7.5477 4.8676 2.8615 11.1946 4.4376 17.816 4.4376 6.6212 0 12.9484-1.5761 17.8159-4.4376 3.4313-2.0174 6.0119-4.6209 7.5765-7.5477l1.8784 12.6193c-.0454 4.5684-3.2746 8.88-8.8753 11.8425z"/><path d="m30.0001 34.0618c9.3533 0 17.6078-3.6191 20.5396-9.0049.7503-1.3766 1.131-2.8225 1.131-4.297 0-3.6923-2.3513-7.1079-6.6205-9.6177-4.0417-2.37589-9.3865-3.68429-15.0501-3.68429-5.6635 0-11.0085 1.30852-15.05 3.68439-4.2694 2.5098-6.62065 5.9253-6.62065 9.6177 0 1.4747.38051 2.9204 1.13063 4.2963 2.93222 5.3864 11.18662 9.0055 20.54002 9.0055zm0-2.7286c-7.8455 0-14.9719-2.8187-17.7444-6.9326 2.7736-4.1115 9.9011-6.9274 17.7444-6.9274 7.8434 0 14.971 2.8159 17.7445 6.9276-2.772 4.1137-9.8988 6.9324-17.7445 6.9324zm-18.9422-10.5732c.0001-2.6856 1.8734-5.2658 5.2749-7.2655 3.6289-2.1332 8.4826-3.308 13.6672-3.308 5.1845 0 10.0384 1.1748 13.6672 3.3081 3.4015 1.9996 5.2749 4.5797 5.2749 7.2654 0 .2393-.0162.478-.0461.7161-3.7628-4.1062-10.9302-6.7315-18.896-6.7315s-15.1331 2.6254-18.8959 6.7315c-.0303-.2375-.0457-.4767-.0462-.7161z"/><path d="m30 41.7701c-.1845 0-.3671.0375-.5367.11-.1697.0726-.3228.1789-.4502.3123-.8888.9311-3.7881 4.1441-3.7881 6.3992 0 2.633 2.142 4.775 4.775 4.775s4.775-2.142 4.775-4.775c0-2.2551-2.8994-5.4681-3.788-6.3992-.1275-.1334-.2806-.2397-.4502-.3123-.1697-.0725-.3523-.11-.5368-.11zm0 8.868c-1.1284 0-2.0464-.918-2.0464-2.0464 0-.6057.9522-2.0693 2.0464-3.3976 1.0943 1.3285 2.0465 2.7919 2.0465 3.3976 0 1.1284-.9181 2.0464-2.0465 2.0464z"/><path d="m23.8843 23.8977h-.4206c-.7535 0-1.3643.6108-1.3643 1.3643s.6108 1.3643 1.3643 1.3643h.4206c.7535 0 1.3643-.6108 1.3643-1.3643s-.6108-1.3643-1.3643-1.3643z"/><path d="m40.074 23.8977h-9.732c-.7536 0-1.3643.6108-1.3643 1.3643s.6107 1.3643 1.3643 1.3643h9.732c.7535 0 1.3643-.6108 1.3643-1.3643s-.6108-1.3643-1.3643-1.3643z"/></g></svg>