<svg fill="none" height="26" viewBox="0 0 40 26" width="40" xmlns="http://www.w3.org/2000/svg"><g fill="#f1cdb3"><path d="m39.3151 0h-38.630105c-.181664 0-.355887.0732456-.484343.203625-.1284558.130378-.20062148.307211-.20062148.491594v24.609581c0 .1844.07216568.3612.20062148.4916.128456.1304.302679.2036.484343.2036h38.630105c.1816 0 .3559-.0732.4843-.2036.1285-.1304.2006-.3072.2006-.4916v-24.609581c0-.184383-.0721-.361216-.2006-.491594-.1284-.1303794-.3027-.203625-.4843-.203625zm-6.7376 15.0331c.1071.4928.2179 1.0024.0739 1.2551-.1547.2714-.6548.4291-1.1383.5817-.3814.1203-.7758.2448-1.1273.4513-.3397.1994-.6335.4789-.9175.7492-.3911.3722-.7604.7236-1.0943.7236-.334 0-.7033-.3515-1.0943-.7236-.284-.2703-.5778-.5499-.9175-.7492-.3515-.2065-.7459-.3309-1.1274-.4513-.4834-.1526-.9835-.3103-1.1381-.5817-.1441-.2527-.0333-.7623.0738-1.2551.088-.4046.1788-.8228.1788-1.251 0-.4281-.0908-.8465-.1788-1.251-.1071-.4928-.2179-1.0023-.0738-1.2552.1546-.2713.6547-.4291 1.1381-.5817.3815-.1203.7759-.2448 1.1274-.4512.3397-.1995.6335-.47897.9175-.74927.391-.37208.7603-.72358 1.0943-.72358.3339 0 .7033.3515 1.0943.72358.284.2703.5778.54977.9175.74927.3515.2063.7459.3308 1.1273.4511.4835.1526.9836.3104 1.1382.5817.1441.2528.0333.7623-.0738 1.2551-.088.4045-.1788.8228-.1788 1.251 0 .4283.0908.8467.1788 1.2512zm-1.9799-6.37234c-.063-.05839-.1271-.1192-.1923-.18121-.5149-.49-1.1556-1.09975-2.0313-1.09975-.8758 0-1.5165.60975-2.0313 1.09975-.2381.22654-.4631.44058-.6666.56006-.2187.12839-.5243.22488-.8479.32694-.7006.22108-1.4945.47155-1.9173 1.21315-.4108.7207-.2341 1.5337-.0781 2.251.0754.347.1466.6748.1466.9514s-.0712.6045-.1466.9515c-.1352.622-.2855 1.316-.0552 1.9594l-2.7779 2.8534-17.67517-18.15596h35.35027zm-18.8969 4.33924-10.33074 10.6116v-21.22348zm.9629.989 6.8488 7.0352c.0637.0654.1396.1174.2232.1528.0836.0355.1734.0538.264.0538.0907 0 .1804-.0183.264-.0538.0837-.0354.1595-.0874.2233-.1528l3.1973-3.2844c.3598.2096.7653.3383 1.144.4578.3236.1021.6293.1986.8479.3269.2035.1195.4284.3336.6666.5601.5148.49 1.1555 1.0998 2.0313 1.0998.8756 0 1.5164-.6098 2.0313-1.0998.2381-.2266.463-.4406.6665-.5602.1326-.0778.2973-.1438.4784-.2065l6.1248 6.2915h-35.35066zm20.3028 3.8056c.3454-.1838.656-.4334.8707-.81.4108-.7207.2341-1.5338.0781-2.251-.0754-.347-.1466-.6749-.1466-.9515s.0712-.6044.1466-.9514c.156-.7173.3327-1.5302-.0782-2.251-.4228-.7416-1.2167-.99207-1.9173-1.21315l-.0638-.02021 6.7742-6.95896v21.22482z"/><path d="m28.374 10.2424c-1.923 0-3.4875 1.5878-3.4875 3.5396 0 1.9517 1.5645 3.5395 3.4875 3.5395s3.4875-1.5878 3.4875-3.5395c0-1.9518-1.5646-3.5396-3.4875-3.5396zm0 5.6887c-1.1675 0-2.1175-.9641-2.1175-2.1491 0-1.1851.9499-2.1492 2.1175-2.1492s2.1176.9641 2.1176 2.1492c0 1.185-.9501 2.1491-2.1176 2.1491z"/></g></svg>